<?xml version="1.0" encoding="UTF-8"?>
<svg width="69px" height="72px" viewBox="0 0 69 72" version="1.1" xmlns="http://www.w3.org/2000/svg" xmlns:xlink="http://www.w3.org/1999/xlink">
    <title>Clip 2</title>
    <defs>
        <linearGradient x1="50%" y1="24.6121066%" x2="50%" y2="99.8961976%" id="linearGradient-1">
            <stop stop-color="#2E0202" offset="0%"></stop>
            <stop stop-color="#6E0808" offset="100%"></stop>
        </linearGradient>
        <path d="M34.5001545,0 C29.824666,3.09209485 21.3124275,15.4601645 0,3.30519324 L0,3.30519324 C4.16896955,17.1606153 5.27564708,25.3772929 9.31945483,33.8061397 L9.31945483,33.8061397 C11.6947476,38.7578897 15.6588227,43.2840624 20.3154597,50.4024159 L20.3154597,50.4024159 L20.5997778,50.8351172 C21.2095167,43.6455243 22.2559311,36.6507554 25.0033099,30.4160787 L25.0033099,30.4160787 C18.5502148,30.2739099 12.4145052,28.4811577 10.5262618,25.89703 L10.5262618,25.89703 L10.5389325,16.0331762 C17.1981583,19.3907148 23.3403577,21.2228035 28.8607656,21.2187769 L28.8607656,21.2187769 L28.8607656,50.7614 L24.7786367,49.0959493 L33.9608771,71.1795092 L34.5001545,72 L35.0394319,71.1795092 L44.2216723,49.0959493 L40.1392344,50.7614 L40.1392344,21.2187769 C45.6596423,21.2228035 51.8021507,19.3907148 58.4613765,16.0331762 L58.4613765,16.0331762 L58.4737382,25.89703 C56.5854948,28.4811577 50.4494762,30.2739099 43.9966901,30.4160787 L43.9966901,30.4160787 C46.7443779,36.6507554 47.7904833,43.6455243 48.4002222,50.8351172 L48.4002222,50.8351172 L48.6845403,50.4024159 C53.3408683,43.2840624 57.3052524,38.7578897 59.6805452,33.8061397 L59.6805452,33.8061397 C63.7243529,25.3772929 64.8310305,17.1606153 69,3.30519324 L69,3.30519324 C47.6878815,15.4601645 39.1756431,3.09209485 34.5001545,0 Z" id="path-2"></path>
    </defs>
    <g id="Page-1" stroke="none" stroke-width="1" fill="none" fill-rule="evenodd">
        <g id="Loading" transform="translate(-153.000000, -334.000000)">
            <g id="logo-mask" transform="translate(153.000000, 334.000000)">
                <mask id="mask-3" fill="white">
                    <use xlink:href="#path-2"></use>
                </mask>
                <use id="Clip-2" fill="url(#linearGradient-1)" xlink:href="#path-2"></use>
            </g>
        </g>
    </g>
</svg>