<?xml version="1.0" encoding="UTF-8"?>
<svg width="136px" height="66px" viewBox="0 0 136 66" version="1.1" xmlns="http://www.w3.org/2000/svg" xmlns:xlink="http://www.w3.org/1999/xlink">
    <title>logo</title>
    <defs>
        <filter id="filter-1">
            <feColorMatrix in="SourceGraphic" type="matrix" values="0 0 0 0 1.000000 0 0 0 0 1.000000 0 0 0 0 1.000000 0 0 0 1.000000 0"></feColorMatrix>
        </filter>
        <polygon id="path-2" points="0 52 136 52 136 66 0 66"></polygon>
        <linearGradient x1="50%" y1="24.6121066%" x2="50%" y2="99.8961976%" id="linearGradient-4">
            <stop stop-color="#2E0202" offset="0%"></stop>
            <stop stop-color="#6E0808" offset="100%"></stop>
        </linearGradient>
        <path d="M68.0000896,0 C65.2896614,1.76077623 60.3550304,8.80370479 48,1.88212393 L48,1.88212393 C50.4167939,9.77201707 51.0583461,14.4509585 53.4025825,19.2507184 L53.4025825,19.2507184 C54.7795638,22.0704649 57.0775784,24.6478688 59.7770781,28.7013757 L59.7770781,28.7013757 L59.9419002,28.9477751 C60.295372,24.8537013 60.9019891,20.8705691 62.4946724,17.3202671 L62.4946724,17.3202671 C58.7537477,17.2393098 55.1968146,16.218437 54.1021808,14.7469198 L54.1021808,14.7469198 L54.1095261,9.1300031 C57.9699468,11.0419348 61.5306421,12.0852075 64.7308786,12.0829146 L64.7308786,12.0829146 L64.7308786,28.9057972 L62.3644271,27.9574156 L67.687465,40.5327761 L68.0000896,41 L68.3127141,40.5327761 L73.6357521,27.9574156 L71.2691214,28.9057972 L71.2691214,12.0829146 C74.4693579,12.0852075 78.0302323,11.0419348 81.8906531,9.1300031 L81.8906531,9.1300031 L81.8978192,14.7469198 C80.8031854,16.218437 77.2460732,17.2393098 73.5053276,17.3202671 L73.5053276,17.3202671 C75.0981901,20.8705691 75.704628,24.8537013 76.0580998,28.9477751 L76.0580998,28.9477751 L76.2229219,28.7013757 C78.9222425,24.6478688 81.2204362,22.0704649 82.5974175,19.2507184 L82.5974175,19.2507184 C84.9416539,14.4509585 85.5832061,9.77201707 88,1.88212393 L88,1.88212393 C75.6451487,8.80370479 70.7105177,1.76077623 68.0000896,0 Z" id="path-5"></path>
    </defs>
    <g id="Page-1" stroke="none" stroke-width="1" fill="none" fill-rule="evenodd">
        <g id="logo" transform="translate(-120.000000, -65.000000)" filter="url(#filter-1)">
            <g transform="translate(120.000000, 65.000000)">
                <mask id="mask-3" fill="white">
                    <use xlink:href="#path-2"></use>
                </mask>
                <g id="Clip-2"></g>
                <path d="M10.722138,55.881004 L10.5864269,56.0194085 L10.5864269,65.404097 C10.5864269,65.7171223 10.3366648,65.9723974 10.0301646,65.9723974 L6.88120625,65.9723974 C6.5747061,65.9723974 6.32494394,65.7171223 6.32494394,65.404097 L6.32494394,56.0092288 L6.20648422,55.881004 L0.556262306,55.881004 C0.249953841,55.881004 0,55.6257289 0,55.3128994 L0,52.595903 C0,52.2828777 0.249953841,52.0276026 0.556262306,52.0276026 L16.3823274,52.0276026 C16.6886359,52.0276026 16.9385898,52.2828777 16.9385898,52.595903 L16.9385898,55.3128994 C16.9385898,55.6257289 16.6886359,55.881004 16.3823274,55.881004 L10.722138,55.881004 Z M30.99926,60.7880025 C31.331254,61.0728379 31.6634395,61.3574775 31.9956251,61.6419213 C31.9996505,61.6452492 32.0029091,61.6483815 32.0069344,61.6519052 C32.5618549,62.1532546 33.1303849,62.6407047 33.7023652,63.1220863 C34.4411091,63.7442215 35.1902039,64.3538279 35.9442824,64.9565825 C36.1346231,65.1088862 36.2063123,65.3559393 36.1275308,65.5894847 C36.0485577,65.8226386 35.8430741,65.9723974 35.6013626,65.9723974 L30.9325546,65.9723974 C30.7899429,65.9723974 30.6672661,65.9246312 30.5612658,65.8275327 L24.8334125,60.5875411 C24.620645,60.3929525 24.4341381,60.1711529 24.2836674,59.9227295 C24.234405,59.841292 24.1931933,59.7565266 24.1594572,59.6690205 L24.1594572,65.404097 C24.1594572,65.7171223 23.9095034,65.9723974 23.6030032,65.9723974 L20.4812638,65.9723974 C20.1753387,65.9723974 19.9257682,65.7181011 19.9250014,65.4054674 L19.8977763,54.2050759 C19.8964408,53.6097602 20.1103583,53.0860938 20.5220921,52.6653989 C20.9338259,52.2450954 21.4463846,52.0276026 22.028524,52.0276026 L32.9954405,52.0276026 C33.5777716,52.0276026 34.0903303,52.2450954 34.5018724,52.6653989 C34.9136062,53.0857023 35.126182,53.6093687 35.126182,54.2039013 L35.126182,58.6118996 C35.126182,59.2064322 34.9136062,59.7299028 34.5018724,60.150402 C34.0903303,60.5707054 33.5777716,60.7880025 32.9954405,60.7880025 L30.99926,60.7880025 Z M24.1594572,58.1025239 C24.1630992,58.0927358 24.1667411,58.0829476 24.1703831,58.0731595 C24.3047525,57.7203943 24.5332379,57.4343844 24.8418465,57.2241348 C25.1834245,56.9915682 25.5861493,56.9069985 25.9919409,56.9069985 L30.7562068,56.9069985 L30.864699,56.7961966 L30.864699,56.0092288 L30.7462393,55.881004 L24.2949767,55.881004 L24.1594572,56.0194085 L24.1594572,58.1025239 Z M43.3786841,52.595903 L43.3786841,65.4318954 C43.3786841,65.7449206 43.1287302,66 42.8222301,66 L39.6732717,66 C39.3667716,66 39.1170094,65.7449206 39.1170094,65.4318954 L39.1170094,52.595903 C39.1170094,52.2828777 39.3667716,52.0276026 39.6732717,52.0276026 L42.8222301,52.0276026 C43.1287302,52.0276026 43.3786841,52.2828777 43.3786841,52.595903 L43.3786841,52.595903 Z M50.5993598,56.8093127 L50.7160944,56.9347969 L61.010014,56.9347969 C61.3163225,56.9347969 61.5662763,57.190072 61.5662763,57.5029015 L61.5662763,60.2198979 C61.5662763,60.5329232 61.3163225,60.7880025 61.010014,60.7880025 L50.7078521,60.7880025 L50.5993598,60.8988044 L50.5993598,65.404097 C50.5993598,65.7171223 50.349406,65.9723974 50.0430975,65.9723974 L46.8941392,65.9723974 C46.587639,65.9723974 46.3376852,65.7171223 46.3376852,65.404097 L46.3376852,54.2315039 C46.3376852,53.6369713 46.5506443,53.1135007 46.9621864,52.6930015 C47.3737285,52.2725023 47.8862872,52.055401 48.4686184,52.055401 L61.010014,52.055401 C61.3163225,52.055401 61.5662763,52.3106761 61.5662763,52.6235056 L61.5662763,55.340502 C61.5662763,55.6535272 61.3163225,55.9088023 61.010014,55.9088023 L50.7335375,55.9088023 L50.5993598,56.0442704 L50.5993598,56.8093127 Z M68.7869521,56.799133 L68.9211297,56.9347969 L76.4557813,56.9347969 C76.7622814,56.9347969 77.0122353,57.190072 77.0122353,57.5029015 L77.0122353,60.2198979 C77.0122353,60.5329232 76.7622814,60.7880025 76.4557813,60.7880025 L68.9226632,60.7880025 L68.7869521,60.926407 L68.7869521,61.9982102 L68.9128874,62.118996 L79.2246334,62.118996 C79.5311336,62.118996 79.7810874,62.3742711 79.7810874,62.6872964 L79.7810874,65.4318954 C79.7810874,65.7449206 79.5311336,66 79.2246334,66 L66.6562106,66 C66.0740712,66 65.5615124,65.7827029 65.1499703,65.3623995 C64.7382366,64.9419003 64.5254691,64.4184297 64.5254691,63.8238971 L64.5254691,54.1761029 C64.5254691,53.5815703 64.7382366,53.0580997 65.1499703,52.6376005 C65.5615124,52.2171013 66.0740712,52 66.6562106,52 L79.2246334,52 C79.5311336,52 79.7810874,52.2552751 79.7810874,52.5681046 L79.7810874,55.340502 C79.7810874,55.6535272 79.5311336,55.9088023 79.2246334,55.9088023 L68.940298,55.9088023 L68.7869521,56.0544501 L68.7869521,56.799133 Z M89.7466551,60.7880025 L87.1102554,60.7880025 L87.0019549,60.8988044 L87.0019549,65.404097 C87.0019549,65.7171223 86.752001,65.9723974 86.4455009,65.9723974 L83.2967342,65.9723974 C82.9902341,65.9723974 82.7402802,65.7171223 82.7402802,65.404097 L82.7402802,52.595903 C82.7402802,52.2828777 82.9902341,52.0276026 83.2967342,52.0276026 L86.4455009,52.0276026 C86.752001,52.0276026 87.0019549,52.2828777 87.0019549,52.595903 L87.0019549,56.7961966 L87.1102554,56.9069985 L91.6101913,56.9069985 C91.7140832,56.6534853 91.821617,56.4015381 91.9299175,56.1505698 C92.1183413,55.6458925 92.3148158,55.1437601 92.5124403,54.642998 C92.8087813,53.8920506 93.1014803,53.1395372 93.3932209,52.3866322 C93.4790946,52.1654198 93.6776776,52.0276026 93.9107634,52.0276026 L97.3039251,52.0276026 C97.497141,52.0276026 97.6633296,52.1192197 97.76933,52.2844438 C97.8751387,52.4496679 97.8910483,52.6417115 97.8138003,52.8227924 L94.9636748,59.5041879 C94.9594578,59.5139761 94.9558158,59.5220024 94.9510237,59.5312032 C94.7764011,59.8882752 94.5390983,60.1772216 94.2423739,60.3874712 L97.7973156,65.0552472 C97.9309182,65.2308467 97.9535368,65.4540166 97.8578872,65.6538908 C97.7622377,65.8533734 97.5759224,65.9723974 97.3581712,65.9723974 L93.7476417,65.9723974 C93.564585,65.9723974 93.4072137,65.8907642 93.2989132,65.7398308 L89.7466551,60.7880025 Z M111.595764,55.881004 L111.460245,56.0194085 L111.460245,65.404097 C111.460245,65.7171223 111.210291,65.9723974 110.903791,65.9723974 L107.754833,65.9723974 C107.448524,65.9723974 107.19857,65.7171223 107.19857,65.404097 L107.19857,56.0092288 L107.080302,55.881004 L101.429889,55.881004 C101.12358,55.881004 100.873626,55.6257289 100.873626,55.3128994 L100.873626,52.595903 C100.873626,52.2828777 101.12358,52.0276026 101.429889,52.0276026 L117.255954,52.0276026 C117.562262,52.0276026 117.812408,52.2828777 117.812408,52.595903 L117.812408,55.3128994 C117.812408,55.6257289 117.562262,55.881004 117.255954,55.881004 L111.595764,55.881004 Z M131.738325,63.6990002 L131.602806,63.5605957 L125.158827,63.5605957 L125.033084,63.6813815 L125.033084,65.4318954 C125.033084,65.7449206 124.78313,66 124.476821,66 L121.327863,66 C121.021363,66 120.771601,65.7449206 120.771601,65.4318954 L120.771601,54.2039013 C120.771601,53.6005593 120.977659,53.0649514 121.39591,52.6376005 C121.596218,52.4332238 121.832563,52.2764175 122.094401,52.1667902 C122.352214,52.0593162 122.623444,52 122.902342,52 L133.869259,52 C134.451398,52 134.963957,52.2171013 135.37569,52.6376005 C135.787233,53.0580997 136,53.5815703 136,54.1761029 L136,65.4318954 C136,65.7449206 135.750046,66 135.443546,66 L132.294779,66 C131.988279,66 131.738325,65.7449206 131.738325,65.4318954 L131.738325,63.6990002 Z M131.604339,59.6793959 L131.738325,59.5439278 L131.738325,56.0164721 L131.63175,55.9088023 L125.139851,55.9088023 L125.033084,56.0164721 L125.033084,59.5439278 L125.16707,59.6793959 L131.604339,59.6793959 Z" id="Fill-1" fill="#231F20" mask="url(#mask-3)"></path>
                <mask id="mask-6" fill="white">
                    <use xlink:href="#path-5"></use>
                </mask>
                <use id="Clip-2" fill="url(#linearGradient-4)" xlink:href="#path-5"></use>
            </g>
        </g>
    </g>
</svg>