<?xml version="1.0" encoding="UTF-8"?>
<svg width="138px" height="14px" viewBox="0 0 138 14" version="1.1" xmlns="http://www.w3.org/2000/svg" xmlns:xlink="http://www.w3.org/1999/xlink">
    <title>logo</title>
    <defs>
        <polygon id="path-1" points="0 0 138 0 138 14 0 14"></polygon>
    </defs>
    <g id="Page-1" stroke="none" stroke-width="1" fill="none" fill-rule="evenodd">
        <g id="Feed-" transform="translate(-19.000000, -38.000000)">
            <g id="logo" transform="translate(19.000000, 38.000000)">
                <mask id="mask-2" fill="white">
                    <use xlink:href="#path-1"></use>
                </mask>
                <g id="Clip-2"></g>
                <path d="M10.8798165,3.88100399 L10.7421097,4.01940852 L10.7421097,13.404097 C10.7421097,13.7171223 10.4886745,13.9723974 10.177667,13.9723974 L6.98240046,13.9723974 C6.67139295,13.9723974 6.41795782,13.7171223 6.41795782,13.404097 L6.41795782,4.00922883 L6.29775605,3.88100399 L0.564442634,3.88100399 C0.253629633,3.88100399 0,3.62572887 0,3.31289939 L0,0.595902957 C0,0.282877718 0.253629633,0.0276026009 0.564442634,0.0276026009 L16.623244,0.0276026009 C16.934057,0.0276026009 17.1876867,0.282877718 17.1876867,0.595902957 L17.1876867,3.31289939 C17.1876867,3.62572887 16.934057,3.88100399 16.623244,3.88100399 L10.8798165,3.88100399 Z M31.4551315,8.78800252 C31.7920077,9.07283787 32.1290784,9.35747745 32.466149,9.64192128 C32.4702336,9.64524925 32.4735401,9.64838146 32.4776246,9.65190519 C33.0407057,10.1532546 33.6175964,10.6407047 34.1979882,11.1220863 C34.947596,11.7442215 35.7077069,12.3538279 36.4728748,12.9565825 C36.6660146,13.1088862 36.738758,13.3559393 36.658818,13.5894847 C36.5786835,13.8226386 36.3701782,13.9723974 36.1249121,13.9723974 L31.3874451,13.9723974 C31.2427362,13.9723974 31.1182554,13.9246312 31.0106962,13.8275327 L25.1986097,8.58754108 C24.9827133,8.39295253 24.7934636,8.1711529 24.6407801,7.9227295 C24.5907933,7.84129204 24.5489756,7.7565266 24.5147433,7.66902049 L24.5147433,13.404097 C24.5147433,13.7171223 24.2611137,13.9723974 23.9501062,13.9723974 L20.7824588,13.9723974 C20.4720348,13.9723974 20.2187942,13.7181011 20.2180162,13.4054674 L20.1903906,2.20507586 C20.1890355,1.60976019 20.4060989,1.08609383 20.8238876,0.665398867 C21.2416763,0.245095435 21.7617726,0.0276026009 22.3524729,0.0276026009 L33.4806676,0.0276026009 C34.0715624,0.0276026009 34.5916587,0.245095435 35.0092529,0.665398867 C35.4270416,1.0857023 35.6427435,1.60936866 35.6427435,2.20390128 L35.6427435,6.6118996 C35.6427435,7.20643222 35.4270416,7.72990282 35.0092529,8.15040201 C34.5916587,8.57070545 34.0715624,8.78800252 33.4806676,8.78800252 L31.4551315,8.78800252 Z M24.5147433,6.10252395 C24.5184389,6.09273579 24.5221344,6.08294763 24.5258299,6.07315948 C24.6621753,5.72039432 24.8940208,5.43438439 25.2071678,5.2241348 C25.553769,4.9915682 25.9624162,4.90699853 26.3741753,4.90699853 L31.2085039,4.90699853 L31.3185916,4.7961966 L31.3185916,4.00922883 L31.1983899,3.88100399 L24.6522557,3.88100399 L24.5147433,4.01940852 L24.5147433,6.10252395 Z M44.0166059,0.595902957 L44.0166059,13.4318954 C44.0166059,13.7449206 43.7629763,14 43.4519688,14 L40.2567022,14 C39.9456947,14 39.6922596,13.7449206 39.6922596,13.4318954 L39.6922596,0.595902957 C39.6922596,0.282877718 39.9456947,0.0276026009 40.2567022,0.0276026009 L43.4519688,0.0276026009 C43.7629763,0.0276026009 44.0166059,0.282877718 44.0166059,0.595902957 L44.0166059,0.595902957 Z M51.3434681,4.80931273 L51.4619193,4.9347969 L61.9072201,4.9347969 C62.2180331,4.9347969 62.4716627,5.19007201 62.4716627,5.50290149 L62.4716627,8.21989792 C62.4716627,8.53292316 62.2180331,8.78800252 61.9072201,8.78800252 L51.4535558,8.78800252 L51.3434681,8.89880445 L51.3434681,13.404097 C51.3434681,13.7171223 51.0898384,13.9723974 50.7790254,13.9723974 L47.5837589,13.9723974 C47.2727514,13.9723974 47.0191217,13.7171223 47.0191217,13.404097 L47.0191217,2.23150388 C47.0191217,1.63697126 47.2352126,1.11350066 47.6528068,0.693001468 C48.070401,0.272502272 48.5904973,0.0554009648 49.1813921,0.0554009648 L61.9072201,0.0554009648 C62.2180331,0.0554009648 62.4716627,0.310676082 62.4716627,0.623505558 L62.4716627,3.34050199 C62.4716627,3.65352723 62.2180331,3.90880235 61.9072201,3.90880235 L51.4796189,3.90880235 L51.3434681,4.04427043 L51.3434681,4.80931273 Z M69.7985249,4.79913305 L69.9346758,4.9347969 L77.580131,4.9347969 C77.8911385,4.9347969 78.1447681,5.19007201 78.1447681,5.50290149 L78.1447681,8.21989792 C78.1447681,8.53292316 77.8911385,8.78800252 77.580131,8.78800252 L69.9362318,8.78800252 L69.7985249,8.92640705 L69.7985249,9.99821017 L69.9263122,10.118996 L80.3897016,10.118996 C80.7007091,10.118996 80.9543387,10.3742711 80.9543387,10.6872964 L80.9543387,13.4318954 C80.9543387,13.7449206 80.7007091,14 80.3897016,14 L67.636449,14 C67.0457487,14 66.5256523,13.7827029 66.1080581,13.3623995 C65.6902694,12.9419003 65.4743731,12.4184297 65.4743731,11.8238971 L65.4743731,2.17610292 C65.4743731,1.5815703 65.6902694,1.0580997 66.1080581,0.637600503 C66.5256523,0.217101307 67.0457487,0 67.636449,0 L80.3897016,0 C80.7007091,0 80.9543387,0.255275117 80.9543387,0.568104593 L80.9543387,3.34050199 C80.9543387,3.65352723 80.7007091,3.90880235 80.3897016,3.90880235 L69.9541259,3.90880235 L69.7985249,4.05445012 L69.7985249,4.79913305 Z M91.0664588,8.78800252 L88.3912886,8.78800252 L88.2813954,8.89880445 L88.2813954,13.404097 C88.2813954,13.7171223 88.0277658,13.9723974 87.7167583,13.9723974 L84.5216862,13.9723974 C84.2106787,13.9723974 83.957049,13.7171223 83.957049,13.404097 L83.957049,0.595902957 C83.957049,0.282877718 84.2106787,0.0276026009 84.5216862,0.0276026009 L87.7167583,0.0276026009 C88.0277658,0.0276026009 88.2813954,0.282877718 88.2813954,0.595902957 L88.2813954,4.7961966 L88.3912886,4.90699853 L92.9574,4.90699853 C93.0628197,4.65348528 93.1719349,4.40153814 93.2818281,4.15056981 C93.4730228,3.64589247 93.6723866,3.14376005 93.8729174,2.64299797 C94.1736163,1.89205062 94.4706197,1.13953716 94.7666506,0.386632175 C94.8537872,0.165419842 95.0552905,0.0276026009 95.291804,0.0276026009 L98.7348652,0.0276026009 C98.9309225,0.0276026009 99.099555,0.119219744 99.2071142,0.284443823 C99.3144789,0.449667902 99.3306225,0.641711529 99.2522385,0.822792421 L96.3601994,7.50418793 C96.3559204,7.51397609 96.3522249,7.52200238 96.3473623,7.53120324 C96.1701717,7.88827519 95.9293791,8.17722156 95.6282912,8.38747116 L99.2355114,13.0552472 C99.3710788,13.2308467 99.3940299,13.4540166 99.2969738,13.6538908 C99.1999177,13.8533734 99.0108625,13.9723974 98.789909,13.9723974 L95.1262835,13.9723974 C94.9405348,13.9723974 94.7808492,13.8907642 94.670956,13.7398308 L91.0664588,8.78800252 Z M113.236879,3.88100399 L113.099366,4.01940852 L113.099366,13.404097 C113.099366,13.7171223 112.845737,13.9723974 112.534729,13.9723974 L109.339462,13.9723974 C109.028649,13.9723974 108.77502,13.7171223 108.77502,13.404097 L108.77502,4.00922883 L108.655013,3.88100399 L102.921505,3.88100399 C102.610692,3.88100399 102.357062,3.62572887 102.357062,3.31289939 L102.357062,0.595902957 C102.357062,0.282877718 102.610692,0.0276026009 102.921505,0.0276026009 L118.980306,0.0276026009 C119.291119,0.0276026009 119.544943,0.282877718 119.544943,0.595902957 L119.544943,3.31289939 C119.544943,3.62572887 119.291119,3.88100399 118.980306,3.88100399 L113.236879,3.88100399 Z M133.675654,11.6990002 L133.538141,11.5605957 L126.999398,11.5605957 L126.871805,11.6813815 L126.871805,13.4318954 C126.871805,13.7449206 126.618176,14 126.307363,14 L123.112096,14 C122.801089,14 122.547654,13.7449206 122.547654,13.4318954 L122.547654,2.20390128 C122.547654,1.60055932 122.756742,1.06495141 123.181144,0.637600503 C123.384398,0.433223799 123.624218,0.276417535 123.889907,0.166790184 C124.151511,0.0593162274 124.42673,0 124.709729,0 L135.837924,0 C136.428624,0 136.948721,0.217101307 137.366509,0.637600503 C137.784104,1.0580997 138,1.5815703 138,2.17610292 L138,13.4318954 C138,13.7449206 137.74637,14 137.435363,14 L134.240291,14 C133.929283,14 133.675654,13.7449206 133.675654,13.4318954 L133.675654,11.6990002 Z M133.539697,7.67939593 L133.675654,7.54392785 L133.675654,4.01647207 L133.567511,3.90880235 L126.980143,3.90880235 L126.871805,4.01647207 L126.871805,7.54392785 L127.007762,7.67939593 L133.539697,7.67939593 Z" id="Fill-1" fill="#FF3C00" mask="url(#mask-2)"></path>
            </g>
        </g>
    </g>
</svg>