<?xml version="1.0" encoding="UTF-8"?>
<svg width="288px" height="140px" viewBox="0 0 288 140" version="1.1" xmlns="http://www.w3.org/2000/svg" xmlns:xlink="http://www.w3.org/1999/xlink">
    <title>logo</title>
    <defs>
        <polygon id="path-1" points="0 110 288 110 288 140 0 140"></polygon>
        <path d="M144.50019,0 C138.740531,3.77922704 128.25444,18.8957566 102,4.03968063 L102,4.03968063 C107.135687,20.9740854 108.498986,31.0166913 113.480488,41.3186151 L113.480488,41.3186151 C116.406573,47.370754 121.289854,52.9027429 127.026291,61.6029528 L127.026291,61.6029528 L127.376538,62.1318099 C128.127665,53.3445297 129.416727,44.7953677 132.801179,37.1752074 L132.801179,37.1752074 C124.851714,37.0014454 117.293231,34.8103039 114.967134,31.6519255 L114.967134,31.6519255 L114.982743,19.5961042 C123.186137,23.6997625 130.752615,25.938982 137.553117,25.9340606 L137.553117,25.9340606 L137.553117,62.0417111 L132.524408,60.0061603 L143.835863,86.997178 L144.50019,88 L145.164518,86.997178 L156.475973,60.0061603 L151.446883,62.0417111 L151.446883,25.9340606 C158.247385,25.938982 165.814244,23.6997625 174.017638,19.5961042 L174.017638,19.5961042 L174.032866,31.6519255 C171.706769,34.8103039 164.147905,37.0014454 156.198821,37.1752074 L156.198821,37.1752074 C159.583654,44.7953677 160.872335,53.3445297 161.623462,62.1318099 L161.623462,62.1318099 L161.973709,61.6029528 C167.709765,52.9027429 172.593427,47.370754 175.519512,41.3186151 L175.519512,41.3186151 C180.501014,31.0166913 181.864313,20.9740854 187,4.03968063 L187,4.03968063 C160.745941,18.8957566 150.25985,3.77922704 144.50019,0 Z" id="path-3"></path>
    </defs>
    <g id="Page-1" stroke="none" stroke-width="1" fill="none" fill-rule="evenodd">
        <g id="Wlecome-Screen" transform="translate(-51.000000, -80.000000)">
            <g id="logo" transform="translate(51.000000, 80.000000)">
                <mask id="mask-2" fill="white">
                    <use xlink:href="#path-1"></use>
                </mask>
                <g id="Clip-2"></g>
                <path d="M22.7057041,118.316437 L22.4183158,118.613018 L22.4183158,138.723065 C22.4183158,139.393833 21.8894077,139.940852 21.2403486,139.940852 L14.5719662,139.940852 C13.922907,139.940852 13.3939989,139.393833 13.3939989,138.723065 L13.3939989,118.591205 L13.1431431,118.316437 L1.17796724,118.316437 C0.529314017,118.316437 0,117.769419 0,117.09907 L0,111.276935 C0,110.606167 0.529314017,110.059148 1.17796724,110.059148 L34.6919875,110.059148 C35.3406408,110.059148 35.8699548,110.606167 35.8699548,111.276935 L35.8699548,117.09907 C35.8699548,117.769419 35.3406408,118.316437 34.6919875,118.316437 L22.7057041,118.316437 Z M65.6454919,128.831434 C66.3485378,129.441795 67.0519896,130.051737 67.7554415,130.66126 C67.7639657,130.668391 67.7708662,130.675103 67.7793905,130.682654 C68.9545163,131.756974 70.1584621,132.80151 71.3697145,133.833042 C72.9341134,135.166189 74.5204318,136.472488 76.117304,137.764105 C76.5203782,138.090471 76.6721907,138.61987 76.5053594,139.120324 C76.3381221,139.61994 75.9029805,139.940852 75.3911209,139.940852 L65.5042332,139.940852 C65.202232,139.940852 64.942446,139.838495 64.7179746,139.630427 L52.5884029,128.401874 C52.1378366,127.984898 51.7428806,127.509613 51.4242368,126.977277 C51.3199165,126.802769 51.2326446,126.621128 51.1612035,126.433615 L51.1612035,138.723065 C51.1612035,139.393833 50.6318895,139.940852 49.9828303,139.940852 L43.3720879,139.940852 C42.7242466,139.940852 42.1957444,139.395931 42.1941207,138.726002 L42.1364674,114.725163 C42.1336393,113.449486 42.5866411,112.327344 43.458548,111.425855 C44.3304548,110.525205 45.4158733,110.059148 46.6486391,110.059148 L69.8726975,110.059148 C71.1058693,110.059148 72.1912878,110.525205 73.0627887,111.425855 C73.9346955,112.326505 74.384856,113.448647 74.384856,114.722646 L74.384856,124.168356 C74.384856,125.442355 73.9346955,126.564077 73.0627887,127.465147 C72.1912878,128.365797 71.1058693,128.831434 69.8726975,128.831434 L65.6454919,128.831434 Z M51.1612035,123.076837 C51.1689159,123.055862 51.1766283,123.034888 51.1843407,123.013913 C51.4688876,122.257988 51.952739,121.645109 52.6062632,121.194575 C53.3296049,120.696218 54.1824337,120.514997 55.0417572,120.514997 L65.1307908,120.514997 L65.3605391,120.277564 L65.3605391,118.591205 L65.1096832,118.316437 L51.4481859,118.316437 L51.1612035,118.613018 L51.1612035,123.076837 Z M91.8607427,111.276935 L91.8607427,138.782633 C91.8607427,139.453401 91.3314287,140 90.6823696,140 L84.0139872,140 C83.364928,140 82.8360199,139.453401 82.8360199,138.782633 L82.8360199,111.276935 C82.8360199,110.606167 83.364928,110.059148 84.0139872,110.059148 L90.6823696,110.059148 C91.3314287,110.059148 91.8607427,110.606167 91.8607427,111.276935 L91.8607427,111.276935 Z M107.151586,120.30567 L107.398788,120.574565 L129.197677,120.574565 C129.84633,120.574565 130.375644,121.121583 130.375644,121.791932 L130.375644,127.614067 C130.375644,128.284835 129.84633,128.831434 129.197677,128.831434 L107.381334,128.831434 L107.151586,129.068867 L107.151586,138.723065 C107.151586,139.393833 106.622272,139.940852 105.973618,139.940852 L99.3052359,139.940852 C98.6561768,139.940852 98.1268627,139.393833 98.1268627,138.723065 L98.1268627,114.781794 C98.1268627,113.507796 98.577835,112.386073 99.4493359,111.485003 C100.320837,110.583933 101.406255,110.118716 102.639427,110.118716 L129.197677,110.118716 C129.84633,110.118716 130.375644,110.665734 130.375644,111.336083 L130.375644,117.158219 C130.375644,117.828987 129.84633,118.376005 129.197677,118.376005 L107.435726,118.376005 L107.151586,118.666294 L107.151586,120.30567 Z M145.666487,120.283857 L145.950628,120.574565 L161.90636,120.574565 C162.555419,120.574565 163.084733,121.121583 163.084733,121.791932 L163.084733,127.614067 C163.084733,128.284835 162.555419,128.831434 161.90636,128.831434 L145.953875,128.831434 L145.666487,129.128015 L145.666487,131.424736 L145.933173,131.683563 L167.769812,131.683563 C168.418871,131.683563 168.948185,132.230581 168.948185,132.901349 L168.948185,138.782633 C168.948185,139.453401 168.418871,140 167.769812,140 L141.154328,140 C139.921562,140 138.836144,139.534363 137.964643,138.633713 C137.092736,137.732644 136.64217,136.610921 136.64217,135.336922 L136.64217,114.663078 C136.64217,113.389079 137.092736,112.267356 137.964643,111.366287 C138.836144,110.465217 139.921562,110 141.154328,110 L167.769812,110 C168.418871,110 168.948185,110.547018 168.948185,111.217367 L168.948185,117.158219 C168.948185,117.828987 168.418871,118.376005 167.769812,118.376005 L145.991219,118.376005 L145.666487,118.688107 L145.666487,120.283857 Z M190.05174,128.831434 L184.468776,128.831434 L184.239434,129.068867 L184.239434,138.723065 C184.239434,139.393833 183.71012,139.940852 183.061061,139.940852 L176.393084,139.940852 C175.744025,139.940852 175.214711,139.393833 175.214711,138.723065 L175.214711,111.276935 C175.214711,110.606167 175.744025,110.059148 176.393084,110.059148 L183.061061,110.059148 C183.71012,110.059148 184.239434,110.606167 184.239434,111.276935 L184.239434,120.277564 L184.468776,120.514997 L193.998052,120.514997 C194.218058,119.971754 194.445777,119.431867 194.675119,118.894078 C195.074135,117.812627 195.490198,116.736629 195.908697,115.663567 C196.536243,114.054394 197.156076,112.441865 197.77388,110.828498 C197.95573,110.354471 198.376258,110.059148 198.869852,110.059148 L206.055371,110.059148 C206.464534,110.059148 206.816463,110.255471 207.040934,110.609522 C207.264999,110.963574 207.29869,111.375096 207.135106,111.763127 L201.099547,126.080403 C201.090616,126.101377 201.082904,126.118577 201.072756,126.138293 C200.702967,126.903447 200.200443,127.522618 199.572086,127.973152 L207.100198,137.97553 C207.383121,138.351814 207.431019,138.830036 207.228467,139.258337 C207.025915,139.6858 206.631365,139.940852 206.170245,139.940852 L198.524418,139.940852 C198.136768,139.940852 197.803511,139.765923 197.574169,139.442495 L190.05174,128.831434 Z M236.320442,118.316437 L236.03346,118.613018 L236.03346,138.723065 C236.03346,139.393833 235.504146,139.940852 234.855087,139.940852 L228.186704,139.940852 C227.538051,139.940852 227.008737,139.393833 227.008737,138.723065 L227.008737,118.591205 L226.758287,118.316437 L214.792705,118.316437 C214.144052,118.316437 213.614738,117.769419 213.614738,117.09907 L213.614738,111.276935 C213.614738,110.606167 214.144052,110.059148 214.792705,110.059148 L248.306726,110.059148 C248.955379,110.059148 249.485099,110.606167 249.485099,111.276935 L249.485099,117.09907 C249.485099,117.769419 248.955379,118.316437 248.306726,118.316437 L236.320442,118.316437 Z M278.975277,135.069286 L278.688295,134.772705 L265.042222,134.772705 L264.775942,135.031532 L264.775942,138.782633 C264.775942,139.453401 264.246628,140 263.597974,140 L256.929592,140 C256.280533,140 255.751625,139.453401 255.751625,138.782633 L255.751625,114.722646 C255.751625,113.42977 256.187984,112.282039 257.073692,111.366287 C257.497874,110.928337 257.998368,110.592323 258.552849,110.357408 C259.098805,110.127106 259.673176,110 260.263783,110 L283.487842,110 C284.720607,110 285.806026,110.465217 286.677933,111.366287 C287.549434,112.267356 288,113.389079 288,114.663078 L288,138.782633 C288,139.453401 287.470686,140 286.821627,140 L280.15365,140 C279.504591,140 278.975277,139.453401 278.975277,138.782633 L278.975277,135.069286 Z M278.691542,126.455848 L278.975277,126.16556 L278.975277,118.606726 L278.749588,118.376005 L265.002037,118.376005 L264.775942,118.606726 L264.775942,126.16556 L265.059677,126.455848 L278.691542,126.455848 Z" id="Fill-1" fill="#FFFFFF" mask="url(#mask-2)"></path>
                <mask id="mask-4" fill="white">
                    <use xlink:href="#path-3"></use>
                </mask>
                <use id="Clip-2" fill="#FFFFFF" xlink:href="#path-3"></use>
            </g>
        </g>
    </g>
</svg>