<?xml version="1.0" encoding="UTF-8"?>
<svg width="257px" height="37px" viewBox="0 0 257 37" version="1.1" xmlns="http://www.w3.org/2000/svg" xmlns:xlink="http://www.w3.org/1999/xlink">
    <title>logo</title>
    <defs>
        <polygon id="path-1" points="0 0 207 0 207 21 0 21"></polygon>
        <linearGradient x1="50%" y1="0%" x2="50%" y2="98.327133%" id="linearGradient-3">
            <stop stop-color="#2E0202" offset="0%"></stop>
            <stop stop-color="#B40A0A" offset="100%"></stop>
        </linearGradient>
        <path d="M18.0000806,3.55271368e-15 C15.5606953,1.58469861 11.1195274,7.92333431 0,1.69391154 C2.17511455,8.79481536 2.75251152,13.0058626 4.86232426,17.3256466 C6.10160746,19.8634185 8.16982053,22.183082 10.5993703,25.8312382 L10.7477102,26.0529976 C11.0658348,22.3683312 11.6117902,18.7835121 13.0452052,15.5882404 C9.67837292,15.5153788 6.47713317,14.5965933 5.49196268,13.2722279 L5.49857348,8.21700279 C8.97295215,9.93774134 12.1775779,10.8766868 15.0577908,10.8746232 L15.0577908,26.0152175 L12.9279844,25.161674 L17.7187185,36.4794985 L18.0000806,36.9 L18.2814427,36.4794985 L23.0721769,25.161674 L20.9422092,26.0152175 L20.9422092,10.8746232 C23.8224221,10.8766868 27.0272091,9.93774134 30.5015878,8.21700279 L30.5080373,13.2722279 C29.5228668,14.5965933 26.3214658,15.5153788 22.9547948,15.5882404 C24.3883711,18.7835121 24.9341652,22.3683312 25.2522898,26.0529976 L25.4006297,25.8312382 C27.8300182,22.183082 29.8983925,19.8634185 31.1376757,17.3256466 C33.2474885,13.0058626 33.8248855,8.79481536 36,1.69391154 C24.8806338,7.92333431 20.4394659,1.58469861 18.0000806,3.55271368e-15 Z" id="path-4"></path>
    </defs>
    <g id="Home" stroke="none" stroke-width="1" fill="none" fill-rule="evenodd">
        <g id="Profile" transform="translate(-592.000000, -17.000000)">
            <g id="logo" transform="translate(592.000000, 17.000000)">
                <g transform="translate(50.000000, 8.000000)">
                    <mask id="mask-2" fill="white">
                        <use xlink:href="#path-1"></use>
                    </mask>
                    <g id="Clip-2"></g>
                    <path d="M16.3197248,5.82150598 L16.1131645,6.02911277 L16.1131645,20.1061456 C16.1131645,20.5756834 15.7330118,20.9585961 15.2665005,20.9585961 L10.4736007,20.9585961 C10.0070894,20.9585961 9.62693673,20.5756834 9.62693673,20.1061456 L9.62693673,6.01384325 L9.44663407,5.82150598 L0.846663951,5.82150598 C0.380444449,5.82150598 -1.22923893e-12,5.4385933 -1.22923893e-12,4.96934909 L-1.22923893e-12,0.893854436 C-1.22923893e-12,0.424316577 0.380444449,0.0414039013 0.846663951,0.0414039013 L24.934866,0.0414039013 C25.4010855,0.0414039013 25.78153,0.424316577 25.78153,0.893854436 L25.78153,4.96934909 C25.78153,5.4385933 25.4010855,5.82150598 24.934866,5.82150598 L16.3197248,5.82150598 Z M47.1826973,13.1820038 C47.6880115,13.6092568 48.1936175,14.0362162 48.6992235,14.4628819 C48.7053503,14.4678739 48.7103101,14.4725722 48.7164369,14.4778578 C49.5610586,15.2298818 50.4263947,15.9610571 51.2969823,16.6831294 C52.421394,17.6163322 53.5615604,18.5307418 54.7093122,19.4348738 C54.9990219,19.6633294 55.1081371,20.033909 54.988227,20.3842271 C54.8680253,20.7339579 54.5552672,20.9585961 54.1873681,20.9585961 L47.0811676,20.9585961 C46.8641042,20.9585961 46.677383,20.8869468 46.5160442,20.741299 L37.7979146,12.8813116 C37.47407,12.5894288 37.1901954,12.2567294 36.9611702,11.8840942 C36.88619,11.7619381 36.8234633,11.6347899 36.772115,11.5035307 L36.772115,20.1061456 C36.772115,20.5756834 36.3916706,20.9585961 35.9251593,20.9585961 L31.1736882,20.9585961 C30.7080522,20.9585961 30.3281913,20.5771516 30.3270243,20.1082011 L30.2855859,3.30761379 C30.2835532,2.41464029 30.6091483,1.62914074 31.2358314,0.998098301 C31.8625144,0.367643152 32.6426589,0.0414039013 33.5287094,0.0414039013 L50.2210013,0.0414039013 C51.1073435,0.0414039013 51.8874881,0.367643152 52.5138794,0.998098301 C53.1405624,1.62855345 53.4641152,2.414053 53.4641152,3.30585192 L53.4641152,9.9178494 C53.4641152,10.8096483 53.1405624,11.5948542 52.5138794,12.225603 C51.8874881,12.8560582 51.1073435,13.1820038 50.2210013,13.1820038 L47.1826973,13.1820038 Z M36.772115,9.15378592 C36.7776583,9.13910368 36.7832016,9.12442145 36.7887449,9.10973922 C36.9932629,8.58059148 37.3410312,8.15157659 37.8107517,7.8362022 C38.3306535,7.4873523 38.9436242,7.3604978 39.561263,7.3604978 L46.8127559,7.3604978 L46.9778875,7.1942949 L46.9778875,6.01384325 L46.7975848,5.82150598 L36.9783836,5.82150598 L36.772115,6.02911277 L36.772115,9.15378592 Z M66.0249088,0.893854436 L66.0249088,20.1478431 C66.0249088,20.617381 65.6444644,21 65.1779531,21 L60.3850533,21 C59.918542,21 59.5383893,20.617381 59.5383893,20.1478431 L59.5383893,0.893854436 C59.5383893,0.424316577 59.918542,0.0414039013 60.3850533,0.0414039013 L65.1779531,0.0414039013 C65.6444644,0.0414039013 66.0249088,0.424316577 66.0249088,0.893854436 L66.0249088,0.893854436 Z M77.0152021,7.2139691 L77.192879,7.40219534 L92.8608301,7.40219534 C93.3270496,7.40219534 93.7074941,7.78510802 93.7074941,8.25435223 L93.7074941,12.3298469 C93.7074941,12.7993847 93.3270496,13.1820038 92.8608301,13.1820038 L77.1803337,13.1820038 L77.0152021,13.3482067 L77.0152021,20.1061456 C77.0152021,20.5756834 76.6347577,20.9585961 76.1685382,20.9585961 L71.3756383,20.9585961 C70.909127,20.9585961 70.5286826,20.5756834 70.5286826,20.1061456 L70.5286826,3.34725582 C70.5286826,2.4554569 70.8528189,1.670251 71.4792102,1.0395022 C72.1056015,0.408753408 72.885746,0.0831014472 73.7720882,0.0831014472 L92.8608301,0.0831014472 C93.3270496,0.0831014472 93.7074941,0.466014123 93.7074941,0.935258337 L93.7074941,5.01075299 C93.7074941,5.48029085 93.3270496,5.86320352 92.8608301,5.86320352 L77.2194284,5.86320352 L77.0152021,6.06640565 L77.0152021,7.2139691 Z M104.697787,7.19869957 L104.902014,7.40219534 L116.370196,7.40219534 C116.836708,7.40219534 117.217152,7.78510802 117.217152,8.25435223 L117.217152,12.3298469 C117.217152,12.7993847 116.836708,13.1820038 116.370196,13.1820038 L104.904348,13.1820038 L104.697787,13.3896106 L104.697787,14.9973152 L104.889468,15.178494 L120.584552,15.178494 C121.051064,15.178494 121.431508,15.5614067 121.431508,16.0309446 L121.431508,20.1478431 C121.431508,20.617381 121.051064,21 120.584552,21 L101.454673,21 C100.568623,21 99.7884785,20.6740544 99.1620872,20.0435992 C98.5354042,19.4128505 98.2115596,18.6276446 98.2115596,17.7358456 L98.2115596,3.26415437 C98.2115596,2.37235545 98.5354042,1.58714955 99.1620872,0.956400755 C99.7884785,0.325651961 100.568623,0 101.454673,0 L120.584552,0 C121.051064,0 121.431508,0.382912676 121.431508,0.85215689 L121.431508,5.01075299 C121.431508,5.48029085 121.051064,5.86320352 120.584552,5.86320352 L104.931189,5.86320352 L104.697787,6.08167517 L104.697787,7.19869957 Z M136.599688,13.1820038 L132.586933,13.1820038 L132.422093,13.3482067 L132.422093,20.1061456 C132.422093,20.5756834 132.041649,20.9585961 131.575137,20.9585961 L126.782529,20.9585961 C126.316018,20.9585961 125.935574,20.5756834 125.935574,20.1061456 L125.935574,0.893854436 C125.935574,0.424316577 126.316018,0.0414039013 126.782529,0.0414039013 L131.575137,0.0414039013 C132.041649,0.0414039013 132.422093,0.424316577 132.422093,0.893854436 L132.422093,7.1942949 L132.586933,7.3604978 L139.4361,7.3604978 C139.59423,6.98022792 139.757902,6.60230721 139.922742,6.22585472 C140.209534,5.46883871 140.50858,4.71564008 140.809376,3.96449696 C141.260424,2.83807593 141.70593,1.70930574 142.149976,0.579948263 C142.280681,0.248129763 142.582936,0.0414039013 142.937706,0.0414039013 L148.102298,0.0414039013 C148.396384,0.0414039013 148.649333,0.178829616 148.810671,0.426665734 C148.971718,0.674501853 148.995934,0.962567294 148.878358,1.23418863 L144.540299,11.2562819 C144.533881,11.2709641 144.528337,11.2830036 144.521043,11.2968049 C144.255258,11.8324128 143.894069,12.2658323 143.442437,12.5812067 L148.853267,19.5828707 C149.056618,19.84627 149.091045,20.181025 148.945461,20.4808362 C148.799877,20.7800601 148.516294,20.9585961 148.184864,20.9585961 L142.689425,20.9585961 C142.410802,20.9585961 142.171274,20.8361463 142.006434,20.6097462 L136.599688,13.1820038 Z M169.855318,5.82150598 L169.649049,6.02911277 L169.649049,20.1061456 C169.649049,20.5756834 169.268605,20.9585961 168.802094,20.9585961 L164.009194,20.9585961 C163.542974,20.9585961 163.16253,20.5756834 163.16253,20.1061456 L163.16253,6.01384325 L162.982519,5.82150598 L154.382257,5.82150598 C153.916037,5.82150598 153.535593,5.4385933 153.535593,4.96934909 L153.535593,0.893854436 C153.535593,0.424316577 153.916037,0.0414039013 154.382257,0.0414039013 L178.470459,0.0414039013 C178.936679,0.0414039013 179.317415,0.424316577 179.317415,0.893854436 L179.317415,4.96934909 C179.317415,5.4385933 178.936679,5.82150598 178.470459,5.82150598 L169.855318,5.82150598 Z M200.51348,17.5485003 L200.307212,17.3408935 L190.499097,17.3408935 L190.307708,17.5220723 L190.307708,20.1478431 C190.307708,20.617381 189.927264,21 189.461044,21 L184.668144,21 C184.201633,21 183.82148,20.617381 183.82148,20.1478431 L183.82148,3.30585192 C183.82148,2.40083898 184.135114,1.59742711 184.771716,0.956400755 C185.076597,0.649835699 185.436327,0.414626302 185.83486,0.250185276 C186.227266,0.088974341 186.640095,0 187.064594,0 L203.756886,0 C204.642937,0 205.423081,0.325651961 206.049764,0.956400755 C206.676155,1.58714955 207,2.37235545 207,3.26415437 L207,20.1478431 C207,20.617381 206.619556,21 206.153044,21 L201.360436,21 C200.893925,21 200.51348,20.617381 200.51348,20.1478431 L200.51348,17.5485003 Z M200.309546,11.5190939 L200.51348,11.3158918 L200.51348,6.0247081 L200.351266,5.86320352 L190.470214,5.86320352 L190.307708,6.0247081 L190.307708,11.3158918 L190.511643,11.5190939 L200.309546,11.5190939 Z" id="Fill-1" fill="#FF3C00" mask="url(#mask-2)"></path>
                </g>
                <mask id="mask-5" fill="white">
                    <use xlink:href="#path-4"></use>
                </mask>
                <use id="Clip-2" fill="url(#linearGradient-3)" xlink:href="#path-4"></use>
            </g>
        </g>
    </g>
</svg>