<svg aria-hidden="true" style="position: absolute; width: 0; height: 0; overflow: hidden;" version="1.1" xmlns="http://www.w3.org/2000/svg" xmlns:xlink="http://www.w3.org/1999/xlink">
<defs>
<symbol id="icon-comment" viewBox="0 0 24 24">
<title>comment</title>
<path d="M6.502 24c-0.204 0-0.443-0.035-0.647-0.138-0.545-0.242-0.885-0.795-0.885-1.418v-3.562c-2.86-0.588-4.97-3.216-4.97-6.225v-6.294c0-3.493 2.792-6.363 6.264-6.363h11.472c3.438 0 6.264 2.836 6.264 6.363v6.329c0 3.493-2.791 6.363-6.264 6.363h-4.732c-0.17 0-0.374 0.069-0.511 0.173l-5.004 4.392c-0.272 0.277-0.613 0.38-0.987 0.38zM6.264 1.729c-2.519 0-4.562 2.075-4.562 4.634v6.329c0 2.317 1.702 4.288 3.949 4.565 0.579 0.069 1.021 0.588 1.021 1.176v3.597l4.698-4.15c0.443-0.38 1.021-0.622 1.6-0.622h4.732c2.519 0 4.562-2.075 4.562-4.634v-6.259c0-2.559-2.043-4.634-4.562-4.634h-11.438z"></path>
</symbol>
<symbol id="icon-emoji" viewBox="0 0 24 24">
<title>emoji</title>
<path d="M11.988 0c-6.624 0-11.988 5.376-11.988 12s5.364 12 11.988 12c6.636 0 12.012-5.376 12.012-12s-5.376-12-12.012-12v0zM12 21.6c-5.304 0-9.6-4.296-9.6-9.6s4.296-9.6 9.6-9.6c5.304 0 9.6 4.296 9.6 9.6s-4.296 9.6-9.6 9.6v0zM16.2 10.8c0.996 0 1.8-0.804 1.8-1.8s-0.804-1.8-1.8-1.8c-0.996 0-1.8 0.804-1.8 1.8s0.804 1.8 1.8 1.8v0zM7.8 10.8c0.996 0 1.8-0.804 1.8-1.8s-0.804-1.8-1.8-1.8c-0.996 0-1.8 0.804-1.8 1.8s0.804 1.8 1.8 1.8v0zM12 18.6c2.796 0 5.172-1.752 6.132-4.2h-12.264c0.96 2.448 3.336 4.2 6.132 4.2v0z"></path>
</symbol>
<symbol id="icon-image" viewBox="0 0 24 24">
<title>image</title>
<path d="M24 21.333v-18.667c0-1.467-1.2-2.667-2.667-2.667h-18.667c-1.467 0-2.667 1.2-2.667 2.667v18.667c0 1.467 1.2 2.667 2.667 2.667h18.667c1.467 0 2.667-1.2 2.667-2.667v0zM7.333 14l3.333 4.013 4.667-6.013 6 8h-18.667l4.667-6z"></path>
</symbol>
<symbol id="icon-like" viewBox="0 0 24 24">
<title>like</title>
<path d="M24 13.914c0-0.799-0.364-1.564-0.927-2.064 0.397-0.533 0.563-1.198 0.497-1.864-0.132-1.398-1.39-2.53-2.847-2.53h-4.303l0.265-2.064c0.066-0.632 0.066-1.165-0.066-1.698-0.497-2.164-2.417-3.695-4.634-3.695-0.497 0-0.993 0.2-1.357 0.566s-0.563 0.832-0.563 1.331v2.73c0 1.198-0.331 2.33-0.96 3.362l-1.159 1.864c-0.166 0.266-0.397 0.466-0.662 0.599-0.232-0.732-0.894-1.265-1.688-1.265h-3.807c-0.993 0-1.788 0.799-1.788 1.798v11.218c0 0.999 0.794 1.798 1.788 1.798h3.873c0.993 0 1.788-0.799 1.788-1.798v-0.266c0.861 0.766 1.986 1.232 3.211 1.232h8.408c0.761 0 1.523-0.333 2.052-0.865s0.794-1.232 0.761-1.964c0-0.266-0.033-0.499-0.132-0.766 0.894-0.466 1.49-1.398 1.49-2.463 0-0.366-0.066-0.732-0.199-1.065 0.596-0.566 0.96-1.331 0.96-2.13zM5.76 22.169c0 0.067-0.066 0.133-0.132 0.133h-3.84c-0.066 0-0.132-0.067-0.132-0.133v-11.218c0-0.067 0.066-0.133 0.132-0.133h3.873c0.066 0 0.132 0.067 0.132 0.133v11.218h-0.033zM21.716 14.913c-0.265 0.133-0.463 0.366-0.53 0.666s0 0.599 0.199 0.832c0.166 0.2 0.232 0.433 0.232 0.666 0 0.533-0.397 0.999-0.927 1.098-0.331 0.067-0.629 0.266-0.761 0.599s-0.099 0.666 0.099 0.965c0.132 0.166 0.199 0.399 0.199 0.632 0 0.266-0.099 0.566-0.298 0.766-0.232 0.233-0.563 0.366-0.894 0.366h-8.408c-1.754 0-3.211-1.431-3.211-3.229v-6.125c0.828-0.2 1.523-0.699 1.986-1.431l1.159-1.864c0.794-1.265 1.225-2.73 1.225-4.227v-2.73c0-0.067 0.033-0.133 0.066-0.166s0.099-0.067 0.166-0.067c0 0 0 0 0 0 1.457 0 2.681 0.999 3.012 2.397 0.066 0.3 0.099 0.666 0.033 1.098l-0.298 2.33c-0.066 0.399 0.066 0.799 0.331 1.132 0.265 0.3 0.662 0.499 1.059 0.499h4.568c0.563 0 1.126 0.466 1.192 0.999 0.033 0.399-0.166 0.799-0.497 1.032-0.298 0.2-0.463 0.566-0.43 0.932s0.265 0.666 0.629 0.799c0.43 0.166 0.695 0.566 0.695 1.032 0.033 0.433-0.199 0.799-0.596 0.999z"></path>
</symbol>
<symbol id="icon-place" viewBox="0 0 24 24">
<title>place</title>
<path d="M12 0c-4.644 0-8.4 3.756-8.4 8.4 0 6.3 8.4 15.6 8.4 15.6s8.4-9.3 8.4-15.6c0-4.644-3.756-8.4-8.4-8.4v0zM12 11.4c-1.656 0-3-1.344-3-3s1.344-3 3-3c1.656 0 3 1.344 3 3s-1.344 3-3 3v0z"></path>
</symbol>
<symbol id="icon-share" viewBox="0 0 24 24">
<title>share</title>
<path d="M1.242 22.924c-0.065 0-0.163 0-0.229-0.032-0.49-0.097-0.817-0.452-0.883-0.937-0.098-0.646-0.131-1.292-0.131-1.97 0-6.912 5.166-12.823 12.065-13.792v-3.714c0-0.549 0.327-1.066 0.883-1.292 0.523-0.226 1.144-0.097 1.537 0.291l9.025 8.914c0.327 0.323 0.49 0.711 0.49 1.163s-0.163 0.84-0.49 1.163l-9.057 8.914c-0.392 0.388-1.014 0.517-1.537 0.291s-0.883-0.711-0.883-1.292v-4.134c-4.054 0.258-7.717 2.455-9.842 5.878-0.196 0.355-0.556 0.549-0.948 0.549zM13.7 3.028v3.327c0 0.711-0.556 1.324-1.275 1.421-6.18 0.807-10.823 6.072-10.823 12.209 0 0.129 0 0.258 0 0.388 2.518-3.294 6.376-5.329 10.594-5.523 0.392-0.032 0.752 0.129 1.046 0.388s0.458 0.646 0.458 1.034v3.844l8.632-8.527v-0.032l-8.632-8.527z"></path>
</symbol>
<symbol id="icon-home" viewBox="0 0 24 24">
<title>home</title>
<path d="M23.665 8.495c0.209 0.156 0.332 0.399 0.332 0.659l0.004 13.992c0.001 0.472-0.386 0.854-0.863 0.854h-8.105v-8.451c0-0.472-0.387-0.853-0.863-0.853h-4.373c-0.476 0-0.863 0.382-0.863 0.853v8.451h-8.099c-0.46 0-0.834-0.37-0.834-0.825v-14.021c0-0.259 0.123-0.503 0.332-0.659l11.164-8.328c0.297-0.223 0.706-0.223 1.003 0l11.165 8.328z"></path>
</symbol>
<symbol id="icon-map" viewBox="0 0 24 24">
<title>map</title>
<path d="M23.877 1.585l-10.909 21.818c-0.188 0.375-0.563 0.597-0.972 0.597-0.085 0-0.17-0.017-0.256-0.034-0.494-0.119-0.835-0.545-0.835-1.057v-9.818h-9.818c-0.511 0-0.938-0.341-1.057-0.835s0.119-1.006 0.563-1.227l21.818-10.909c0.153-0.085 0.324-0.119 0.494-0.119 0.29 0 0.563 0.102 0.767 0.324 0.341 0.324 0.426 0.835 0.205 1.261z"></path>
</symbol>
<symbol id="icon-message" viewBox="0 0 24 24">
<title>message</title>
<path d="M22.986 3.556h-22.097l11.049 8.889 11.174-8.864c-0.041-0.012-0.083-0.020-0.125-0.025z"></path>
<path d="M12.541 14.458c-0.316 0.25-0.77 0.25-1.086 0l-11.455-9.124v14.282c0 0.458 0.384 0.829 0.857 0.829h22.286c0.473 0 0.857-0.371 0.857-0.829v-14.16l-11.459 9.002z"></path>
</symbol>
<symbol id="icon-bell" viewBox="0 0 24 24">
<title>bell</title>
<path d="M21.898 20.217l-1.712-2.853c-0.791-1.317-1.208-2.825-1.208-4.36v-2.499c0-3.155-2.105-5.824-4.984-6.684v-1.789c0-1.1-0.894-1.994-1.994-1.994s-1.994 0.894-1.994 1.994v1.789c-2.879 0.86-4.984 3.529-4.984 6.684v2.499c0 1.535-0.418 3.042-1.207 4.359l-1.712 2.853c-0.093 0.155-0.095 0.346-0.006 0.502s0.253 0.253 0.433 0.253h18.941c0.179 0 0.345-0.097 0.434-0.252s0.086-0.349-0.006-0.502z"></path>
<path d="M8.86 21.969c0.562 1.174 1.753 1.994 3.139 1.994s2.577-0.819 3.139-1.994h-6.278z"></path>
</symbol>
<symbol id="icon-user" viewBox="0 0 24 24">
<title>user</title>
<path d="M17.29 18.372c-0.465 0.417-1.080 0.628-1.828 0.628h-6.926c-0.748 0-1.362-0.211-1.828-0.628-0.47-0.422-0.71-0.995-0.71-1.701 0-0.272 0.010-0.541 0.029-0.8 0.019-0.265 0.059-0.552 0.116-0.856 0.059-0.306 0.134-0.595 0.224-0.86 0.093-0.274 0.219-0.544 0.375-0.802 0.162-0.269 0.353-0.503 0.567-0.695 0.224-0.201 0.497-0.364 0.814-0.481 0.315-0.118 0.665-0.177 1.038-0.177 0.146 0 0.289 0.057 0.563 0.225 0.171 0.105 0.368 0.225 0.587 0.356 0.188 0.113 0.443 0.219 0.758 0.315 0.308 0.094 0.62 0.142 0.928 0.142s0.621-0.048 0.928-0.142c0.315-0.096 0.57-0.201 0.759-0.315 0.22-0.132 0.417-0.252 0.586-0.356 0.274-0.168 0.416-0.225 0.563-0.225 0.374 0 0.723 0.060 1.038 0.177 0.317 0.118 0.591 0.28 0.814 0.482 0.214 0.192 0.404 0.426 0.567 0.695 0.156 0.258 0.283 0.528 0.375 0.802 0.090 0.265 0.165 0.554 0.224 0.86 0.058 0.304 0.097 0.592 0.117 0.856 0.019 0.258 0.029 0.527 0.029 0.8 0 0.707-0.239 1.279-0.71 1.701zM10.026 6.025c0.68-0.681 1.512-1.025 2.475-1.025s1.794 0.344 2.475 1.025 1.025 1.513 1.025 2.475c0 0.962-0.345 1.795-1.025 2.475s-1.513 1.026-2.475 1.026-1.795-0.345-2.475-1.026c-0.681-0.68-1.026-1.513-1.026-2.475s0.345-1.794 1.026-2.475zM12 0c-6.628 0-12 5.373-12 12s5.373 12 12 12c6.627 0 12-5.373 12-12s-5.373-12-12-12z"></path>
</symbol>
<symbol id="icon-setting" viewBox="0 0 24 24">
<title>setting</title>
<path d="M12 2.4c-5.302 0-9.6 4.298-9.6 9.6s4.298 9.6 9.6 9.6c5.302 0 9.6-4.298 9.6-9.6s-4.298-9.6-9.6-9.6zM12 16.8c-2.651 0-4.8-2.149-4.8-4.8s2.149-4.8 4.8-4.8c2.651 0 4.8 2.149 4.8 4.8s-2.149 4.8-4.8 4.8z"></path>
<path d="M15.5 3.6l-0.701-3.6h-5.599l-0.701 3.6h7.001zM8.5 20.4l0.701 3.6h5.599l0.701-3.6h-7.001zM6.475 4.769l-3.468-1.194-2.8 4.85 2.767 2.406 3.5-6.062zM17.525 19.231l3.468 1.194 2.8-4.85-2.767-2.406-3.5 6.062zM2.975 13.169l-2.767 2.406 2.8 4.85 3.468-1.194-3.5-6.062zM21.025 10.831l2.767-2.406-2.8-4.85-3.468 1.194 3.5 6.062z"></path>
</symbol>
<symbol id="icon-trifekta" viewBox="0 0 24 24">
<title>trifekta</title>
<path d="M12 0c-1.556 1.031-4.388 5.153-11.478 1.102v0c1.387 4.618 1.755 7.357 3.101 10.167v0c0.79 1.651 2.109 3.159 3.658 5.532v0l0.095 0.144c0.203-2.397 0.551-4.728 1.465-6.806v0c-2.147-0.047-4.188-0.645-4.817-1.506v0l0.004-3.288c2.216 1.119 4.259 1.73 6.096 1.729v0 9.848l-1.358-0.555 3.055 7.361 0.179 0.273 0.179-0.273 3.055-7.361-1.358 0.555v-9.848c1.837 0.001 3.88-0.609 6.096-1.729v0l0.004 3.288c-0.628 0.861-2.67 1.459-4.817 1.506v0c0.914 2.078 1.262 4.41 1.465 6.806v0l0.095-0.144c1.549-2.373 2.868-3.882 3.658-5.532v0c1.345-2.81 1.714-5.549 3.101-10.167v0c-7.091 4.052-9.923-0.071-11.478-1.102z"></path>
</symbol>
<symbol id="icon-trophy" viewBox="0 0 24 24">
<title>trophy</title>
<path d="M19.478 2.026v-2.026h2.074c0 0 0.642 0.215 0.74 1.030 0.082 0.686 0.086 4.145 0.044 4.436 0 0 0.301 4.507-3.247 5.442l0.388-2.546c0 0 1.118-0.165 1.219-2.715l-0.027-3.621h-1.192z"></path>
<path d="M4.522 2.026v-2.026h-2.073c0 0-0.643 0.215-0.74 1.030-0.083 0.686-0.087 4.145-0.045 4.436 0 0-0.301 4.507 3.247 5.442l-0.388-2.546c0 0-1.118-0.165-1.219-2.715l0.027-3.621h1.192z"></path>
<path d="M18 22.533c0-2.203-4.208-3.987-6-3.987s-6 1.785-6 3.987c0 0.006 0.002 0.014 0.002 0.020 0 0.002-0.002 0.005-0.002 0.006v1.097c0 0.189 0.168 0.343 0.373 0.343h11.254c0.205 0 0.373-0.155 0.373-0.343v-1.097c0-0.002-0.002-0.005-0.002-0.006 0-0.006 0.002-0.014 0.002-0.020z"></path>
<path d="M17.213 0h-10.426c-0.432 0-0.787 0.358-0.787 0.798v7.058c0 0.035 0.004 0.070 0.004 0.105 0.037 3.156 1.693 5.825 3.996 6.824v2.534c0.684-0.243 1.321-0.382 1.792-0.382 0.553 0 1.336 0.187 2.154 0.517 0.022-0.043 0.054-0.080 0.054-0.131v-2.539c2.303-0.999 3.959-3.668 3.996-6.824 0-0.035 0.004-0.070 0.004-0.105v-7.058c0-0.439-0.354-0.798-0.787-0.798z"></path>
</symbol>
</defs>
</svg>
