<svg aria-hidden="true" style="position: absolute; width: 0; height: 0; overflow: hidden;" version="1.1" xmlns="http://www.w3.org/2000/svg" xmlns:xlink="http://www.w3.org/1999/xlink">
<defs>
<symbol id="icon-home" viewBox="0 0 32 32">
<title>home</title>
<path d="M31.553 11.327c0.278 0.208 0.442 0.533 0.442 0.879l0.005 18.656c0.001 0.629-0.515 1.139-1.151 1.139h-10.806v-11.267c0-0.629-0.516-1.138-1.151-1.138h-5.831c-0.635 0-1.15 0.509-1.15 1.138v11.267h-10.799c-0.614 0-1.112-0.493-1.112-1.1v-18.694c0-0.346 0.164-0.67 0.443-0.879l14.886-11.104c0.395-0.297 0.942-0.297 1.338 0l14.886 11.104z"></path>
</symbol>
<symbol id="icon-map" viewBox="0 0 32 32">
<title>map</title>
<path d="M31.837 2.114l-14.546 29.091c-0.25 0.5-0.75 0.795-1.295 0.795-0.114 0-0.227-0.023-0.341-0.045-0.659-0.159-1.114-0.727-1.114-1.409v-13.091h-13.091c-0.682 0-1.25-0.455-1.409-1.114s0.159-1.341 0.75-1.636l29.091-14.545c0.205-0.114 0.432-0.159 0.659-0.159 0.386 0 0.75 0.136 1.023 0.432 0.455 0.432 0.568 1.114 0.273 1.682z"></path>
</symbol>
<symbol id="icon-message" viewBox="0 0 32 32">
<title>message</title>
<path d="M30.648 4.741h-29.463l14.732 11.852 14.898-11.819c-0.055-0.016-0.11-0.027-0.167-0.033z"></path>
<path d="M16.721 19.277c-0.421 0.333-1.027 0.333-1.448 0l-15.273-12.166v19.043c0 0.61 0.512 1.105 1.143 1.105h29.714c0.631 0 1.143-0.495 1.143-1.105v-18.88l-15.279 12.002z"></path>
</symbol>
<symbol id="icon-bell" viewBox="0 0 32 32">
<title>bell</title>
<path d="M29.197 26.956l-2.282-3.804c-1.054-1.756-1.611-3.767-1.611-5.814v-3.332c0-4.207-2.807-7.765-6.646-8.912v-2.386c0-1.466-1.192-2.658-2.658-2.658s-2.658 1.192-2.658 2.658v2.386c-3.839 1.147-6.646 4.705-6.646 8.912v3.332c0 2.047-0.557 4.057-1.61 5.813l-2.282 3.804c-0.124 0.206-0.126 0.461-0.008 0.67s0.338 0.338 0.577 0.338h25.254c0.239 0 0.46-0.129 0.578-0.336s0.114-0.465-0.008-0.67z"></path>
<path d="M11.814 29.292c0.75 1.566 2.337 2.658 4.186 2.658s3.436-1.093 4.186-2.658h-8.371z"></path>
</symbol>
<symbol id="icon-user" viewBox="0 0 32 32">
<title>user</title>
<path d="M23.054 24.497c-0.62 0.555-1.44 0.837-2.437 0.837h-9.234c-0.997 0-1.817-0.281-2.437-0.837-0.627-0.563-0.946-1.326-0.946-2.268 0-0.362 0.013-0.721 0.039-1.066 0.025-0.353 0.078-0.736 0.155-1.141 0.078-0.408 0.179-0.794 0.298-1.147 0.124-0.365 0.293-0.725 0.501-1.069 0.216-0.359 0.47-0.67 0.756-0.927 0.298-0.269 0.663-0.485 1.085-0.642 0.42-0.157 0.886-0.236 1.385-0.236 0.195 0 0.385 0.076 0.751 0.299 0.228 0.14 0.491 0.3 0.783 0.475 0.25 0.151 0.591 0.292 1.011 0.419 0.411 0.125 0.827 0.189 1.238 0.189s0.827-0.064 1.238-0.189c0.42-0.128 0.76-0.269 1.012-0.419 0.293-0.176 0.556-0.336 0.782-0.475 0.366-0.224 0.555-0.299 0.751-0.299 0.498 0 0.964 0.080 1.385 0.236 0.422 0.158 0.788 0.374 1.085 0.642 0.285 0.256 0.539 0.568 0.756 0.927 0.208 0.344 0.377 0.705 0.501 1.069 0.12 0.353 0.22 0.738 0.298 1.147 0.077 0.405 0.129 0.789 0.155 1.141 0.026 0.344 0.039 0.702 0.039 1.066 0 0.943-0.319 1.706-0.946 2.268zM13.367 8.033c0.907-0.908 2.017-1.367 3.3-1.367s2.392 0.459 3.3 1.367 1.367 2.017 1.367 3.3c0 1.282-0.46 2.393-1.367 3.3s-2.017 1.367-3.3 1.367-2.393-0.461-3.3-1.367c-0.908-0.907-1.367-2.017-1.367-3.3s0.46-2.392 1.367-3.3zM16 0c-8.837 0-16 7.164-16 16s7.163 16 16 16c8.836 0 16-7.164 16-16s-7.163-16-16-16z"></path>
</symbol>
<symbol id="icon-setting" viewBox="0 0 32 32">
<title>setting</title>
<path d="M16 3.2c-7.069 0-12.8 5.731-12.8 12.8s5.731 12.8 12.8 12.8c7.069 0 12.8-5.731 12.8-12.8s-5.731-12.8-12.8-12.8zM16 22.4c-3.534 0-6.4-2.866-6.4-6.4s2.866-6.4 6.4-6.4c3.534 0 6.4 2.866 6.4 6.4s-2.866 6.4-6.4 6.4z"></path>
<path d="M20.667 4.8l-0.934-4.8h-7.466l-0.934 4.8h9.334zM11.333 27.2l0.934 4.8h7.466l0.934-4.8h-9.334zM8.634 6.358l-4.624-1.592-3.733 6.467 3.69 3.208 4.667-8.083zM23.366 25.642l4.624 1.592 3.733-6.467-3.69-3.208-4.667 8.083zM3.966 17.558l-3.69 3.208 3.733 6.467 4.624-1.592-4.667-8.083zM28.034 14.442l3.69-3.208-3.733-6.467-4.624 1.592 4.667 8.083z"></path>
</symbol>
<symbol id="icon-trifekta" viewBox="0 0 32 32">
<title>trifekta</title>
<path d="M16 0c-2.074 1.374-5.85 6.871-15.304 1.469v0c1.849 6.158 2.34 9.81 4.134 13.556v0c1.054 2.201 2.812 4.212 4.878 7.376v0l0.126 0.192c0.27-3.195 0.735-6.304 1.953-9.075v0c-2.863-0.063-5.584-0.86-6.422-2.008v0l0.006-4.384c2.954 1.492 5.679 2.306 8.128 2.305v0 13.13l-1.811-0.74 4.073 9.815 0.239 0.365 0.239-0.365 4.073-9.815-1.811 0.74v-13.13c2.449 0.002 5.174-0.812 8.128-2.305v0l0.005 4.384c-0.838 1.149-3.56 1.945-6.422 2.008v0c1.219 2.771 1.683 5.88 1.953 9.075v0l0.126-0.192c2.066-3.164 3.824-5.175 4.878-7.376v0c1.794-3.746 2.285-7.398 4.134-13.556v0c-9.454 5.402-13.23-0.095-15.304-1.469z"></path>
</symbol>
<symbol id="icon-trophy" viewBox="0 0 32 32">
<title>trophy</title>
<path d="M25.971 2.701v-2.701h2.766c0 0 0.856 0.287 0.987 1.374 0.11 0.914 0.115 5.526 0.059 5.915 0 0 0.401 6.009-4.329 7.257l0.517-3.395c0 0 1.491-0.22 1.626-3.621l-0.037-4.828h-1.589z"></path>
<path d="M6.029 2.701v-2.701h-2.764c0 0-0.857 0.287-0.987 1.374-0.111 0.914-0.116 5.526-0.060 5.915 0 0-0.401 6.009 4.329 7.257l-0.517-3.395c0 0-1.491-0.22-1.626-3.621l0.037-4.828h1.589z"></path>
<path d="M24 30.044c0-2.937-5.611-5.316-8-5.316s-8 2.38-8 5.316c0 0.009 0.003 0.018 0.003 0.027 0 0.002-0.003 0.006-0.003 0.009v1.463c0 0.252 0.224 0.458 0.497 0.458h15.005c0.273 0 0.497-0.206 0.497-0.458v-1.463c0-0.002-0.003-0.006-0.003-0.009 0-0.009 0.003-0.018 0.003-0.027z"></path>
<path d="M22.951 0h-13.901c-0.576 0-1.049 0.478-1.049 1.063v9.411c0 0.047 0.005 0.093 0.005 0.14 0.049 4.208 2.257 7.766 5.328 9.098v3.379c0.912-0.324 1.761-0.509 2.389-0.509 0.737 0 1.781 0.25 2.872 0.69 0.029-0.057 0.072-0.107 0.072-0.174v-3.386c3.071-1.332 5.279-4.89 5.328-9.098 0-0.047 0.005-0.093 0.005-0.14v-9.411c0-0.586-0.472-1.063-1.049-1.063z"></path>
</symbol>
</defs>
</svg>
