<?xml version="1.0" encoding="utf-8"?>
<!-- Generated by IcoMoon.io -->
<svg version="1.1" xmlns="http://www.w3.org/2000/svg" xmlns:xlink="http://www.w3.org/1999/xlink" width="496" height="48" viewBox="0 0 496 48">
<svg id="icon-location" width="16" height="16" viewBox="0 0 16 16" x="0" y="0">
<path fill="#ccc" d="M8 8c-1.379 0-2.5-1.121-2.5-2.5s1.121-2.5 2.5-2.5c1.378 0 2.5 1.122 2.5 2.5s-1.121 2.5-2.5 2.5zM8 0c-3.584 0-6.5 2.767-6.5 6.166 0 2.43 1.072 4.887 3.101 7.107 1.515 1.658 3.017 2.597 3.080 2.636 0.097 0.060 0.208 0.090 0.319 0.090s0.223-0.030 0.319-0.090c0.064-0.039 1.566-0.978 3.080-2.636 2.029-2.22 3.101-4.678 3.101-7.107 0-3.4-2.916-6.166-6.5-6.166z"></path>
</svg>
<svg id="icon-phone" width="16" height="16" viewBox="0 0 16 16" x="32" y="0">
<path fill="#ccc" d="M15.664 12.158c-0.269-0.439-0.686-0.95-1.177-1.439-0.355-0.355-1.573-1.512-2.356-1.512-0.251 0-0.411 0.107-0.5 0.197l-1.043 1.042c-0.018 0.018-0.074 0.038-0.174 0.038-0.579 0-1.806-0.641-3.032-1.866-1.635-1.635-2.028-3.007-1.828-3.206l1.042-1.042c0.090-0.090 0.197-0.249 0.197-0.5 0.001-0.784-1.157-2.002-1.512-2.357s-1.572-1.512-2.356-1.512c-0.251 0-0.41 0.107-0.5 0.197l-2.085 2.085c-0.616 0.615-0.391 1.819 0.668 3.577 0.919 1.526 2.375 3.315 4.096 5.036 3.054 3.053 6.146 5.105 7.694 5.104 0.385 0 0.695-0.115 0.921-0.341l2.085-2.085c0.451-0.451 0.007-1.178-0.139-1.417zM13.075 15.011c-0.024 0.023-0.092 0.048-0.216 0.048-1.065 0-3.901-1.704-7.059-4.861-1.683-1.683-3.099-3.422-3.987-4.896-1.001-1.66-0.906-2.298-0.826-2.378l1.983-1.983c0.259 0.1 0.858 0.481 1.581 1.205s1.105 1.322 1.205 1.581l-0.929 0.93c-0.969 0.969 0.278 3.099 1.847 4.668 1.346 1.346 2.794 2.181 3.778 2.181 0.46 0 0.738-0.182 0.891-0.334l0.93-0.929c0.259 0.1 0.857 0.482 1.581 1.205s1.105 1.322 1.205 1.581l-1.983 1.983z"></path>
</svg>
<svg id="icon-web" width="16" height="16" viewBox="0 0 16 16" x="64" y="0">
<path fill="#ccc" d="M8 0c-4.4 0-8 3.6-8 8s3.6 8 8 8c4.4 0 8-3.6 8-8s-3.6-8-8-8v0zM13.52 4.8h-2.32c-0.24-1.040-0.64-1.92-1.12-2.88 1.44 0.56 2.72 1.52 3.44 2.88v0zM8 1.6c0.64 0.96 1.2 2 1.52 3.2h-3.040c0.32-1.12 0.88-2.24 1.52-3.2v0zM1.84 9.6c-0.16-0.48-0.24-1.040-0.24-1.6s0.080-1.12 0.24-1.6h2.72c-0.080 0.56-0.080 1.040-0.080 1.6s0.080 1.040 0.080 1.6h-2.72zM2.48 11.2h2.32c0.24 1.040 0.64 1.92 1.12 2.88-1.44-0.56-2.72-1.52-3.44-2.88v0zM4.8 4.8h-2.32c0.8-1.36 2-2.32 3.44-2.88-0.48 0.96-0.88 1.84-1.12 2.88v0zM8 14.4c-0.64-0.96-1.2-2-1.52-3.2h3.040c-0.32 1.12-0.88 2.24-1.52 3.2v0zM9.84 9.6h-3.68c-0.080-0.56-0.16-1.040-0.16-1.6s0.080-1.040 0.16-1.6h3.76c0.080 0.56 0.16 1.040 0.16 1.6s-0.16 1.040-0.24 1.6v0zM10.080 14.080c0.48-0.88 0.88-1.84 1.12-2.88h2.32c-0.72 1.36-2 2.32-3.44 2.88v0zM11.52 9.6c0.080-0.56 0.080-1.040 0.080-1.6s-0.080-1.040-0.080-1.6h2.72c0.16 0.48 0.24 1.040 0.24 1.6s-0.080 1.12-0.24 1.6h-2.72z"></path>
</svg>
<svg id="icon-star-bg" width="80" height="16" viewBox="0 0 80 16" x="96" y="0">
<path fill="#9b9b9b" d="M8 13.267l-4.944 2.733 0.944-5.789-4-4.1 5.528-0.845 2.472-5.267 2.472 5.267 5.528 0.845-4 4.1 0.944 5.789z"></path>
<path fill="#9b9b9b" d="M24 13.267l-4.944 2.733 0.944-5.789-4-4.1 5.528-0.845 2.472-5.267 2.472 5.267 5.528 0.845-4 4.1 0.944 5.789z"></path>
<path fill="#9b9b9b" d="M40 13.267l-4.944 2.733 0.944-5.789-4-4.1 5.528-0.845 2.472-5.267 2.472 5.267 5.528 0.845-4 4.1 0.944 5.789z"></path>
<path fill="#9b9b9b" d="M56 13.267l-4.944 2.733 0.944-5.789-4-4.1 5.528-0.845 2.472-5.267 2.472 5.267 5.528 0.845-4 4.1 0.944 5.789z"></path>
<path fill="#9b9b9b" d="M72 13.267l-4.944 2.733 0.944-5.789-4-4.1 5.528-0.845 2.472-5.267 2.472 5.267 5.528 0.845-4 4.1 0.944 5.789z"></path>
</svg>
<svg id="icon-star" width="80" height="16" viewBox="0 0 80 16" x="192" y="0">
<path fill="#ffad26" d="M8 13.267l-4.944 2.733 0.944-5.789-4-4.1 5.528-0.845 2.472-5.267 2.472 5.267 5.528 0.845-4 4.1 0.944 5.789z"></path>
<path fill="#ffad26" d="M24 13.267l-4.944 2.733 0.944-5.789-4-4.1 5.528-0.845 2.472-5.267 2.472 5.267 5.528 0.845-4 4.1 0.944 5.789z"></path>
<path fill="#ffad26" d="M40 13.267l-4.944 2.733 0.944-5.789-4-4.1 5.528-0.845 2.472-5.267 2.472 5.267 5.528 0.845-4 4.1 0.944 5.789z"></path>
<path fill="#ffad26" d="M56 13.267l-4.944 2.733 0.944-5.789-4-4.1 5.528-0.845 2.472-5.267 2.472 5.267 5.528 0.845-4 4.1 0.944 5.789z"></path>
<path fill="#ffad26" d="M72 13.267l-4.944 2.733 0.944-5.789-4-4.1 5.528-0.845 2.472-5.267 2.472 5.267 5.528 0.845-4 4.1 0.944 5.789z"></path>
</svg>
<svg id="icon-search" width="16" height="16" viewBox="0 0 16 16" x="288" y="0">
<path fill="#5c5c5c" d="M15.736 14.32l-3.15-3.149c2.050-2.742 1.855-6.63-0.636-9.121-2.734-2.734-7.166-2.734-9.9 0s-2.733 7.165 0 9.899c2.492 2.492 6.38 2.686 9.122 0.636l3.149 3.15c0.391 0.39 1.024 0.39 1.415 0 0.39-0.391 0.39-1.024 0-1.415v0zM10.536 10.536c-1.953 1.952-5.119 1.952-7.071 0-1.953-1.953-1.953-5.119 0-7.071 1.952-1.953 5.118-1.953 7.071 0 1.952 1.952 1.952 5.118 0 7.071v0z"></path>
</svg>
<svg id="icon-photo" width="16" height="16" viewBox="0 0 16 16" x="320" y="0">
<path fill="#5c5c5c" d="M10.369 0.893l1.445 1.579h2.503c0.869 0 1.579 0.711 1.579 1.579v0 9.476c0 0.869-0.711 1.579-1.579 1.579v0h-12.635c-0.869 0-1.579-0.711-1.579-1.579v0-9.476c0-0.869 0.711-1.579 1.579-1.579v0h2.503l1.445-1.579h4.738zM8 4.841c-2.18 0-3.948 1.769-3.948 3.948s1.769 3.948 3.948 3.948c2.18 0 3.948-1.769 3.948-3.948s-1.769-3.948-3.948-3.948zM8 6.263c1.396 0 2.527 1.131 2.527 2.527s-1.131 2.527-2.527 2.527c-1.396 0-2.527-1.131-2.527-2.527s1.131-2.527 2.527-2.527z"></path>
</svg>
<svg id="icon-mail" width="16" height="16" viewBox="0 0 16 16" x="352" y="0">
<path fill="none" stroke="#979797" stroke-linejoin="miter" stroke-linecap="butt" stroke-miterlimit="4" stroke-width="1.0667" d="M0.652 2.567h14.697v10.867h-14.697v-10.867z"></path>
<path fill="none" stroke="#979797" stroke-linejoin="miter" stroke-linecap="square" stroke-miterlimit="4" stroke-width="1.0667" d="M1.204 3.124l6.796 5.851"></path>
<path fill="none" stroke="#979797" stroke-linejoin="miter" stroke-linecap="square" stroke-miterlimit="4" stroke-width="1.0667" d="M14.796 3.124l-6.796 5.851"></path>
</svg>
<svg id="icon-google-color" width="16" height="16" viewBox="0 0 16 16" x="384" y="0">
<path fill="#4285f4" d="M15.842 8.184c0-0.544-0.044-1.091-0.138-1.626h-7.546v3.081h4.321c-0.179 0.994-0.755 1.873-1.599 2.431v1.999h2.578c1.514-1.393 2.384-3.451 2.384-5.885z"></path>
<path fill="#34a853" d="M8.158 16c2.158 0 3.977-0.708 5.303-1.931l-2.578-1.999c-0.717 0.488-1.643 0.764-2.722 0.764-2.087 0-3.857-1.408-4.492-3.301h-2.66v2.061c1.358 2.701 4.124 4.406 7.149 4.406z"></path>
<path fill="#fbbc04" d="M3.666 9.533c-0.335-0.994-0.335-2.069 0-3.063v-2.061h-2.657c-1.135 2.261-1.135 4.924 0 7.184l2.657-2.061z"></path>
<path fill="#ea4335" d="M8.158 3.166c1.141-0.018 2.243 0.412 3.069 1.199l2.284-2.284c-1.446-1.358-3.366-2.105-5.353-2.081-3.025 0-5.791 1.705-7.149 4.409l2.657 2.061c0.632-1.896 2.405-3.304 4.492-3.304z"></path>
</svg>
<svg id="icon-facebook-square" width="16" height="16" viewBox="0 0 16 16" x="416" y="0">
<path fill="#fff" d="M12.286 1.143c1.419 0 2.571 1.152 2.571 2.571v8.571c0 1.419-1.152 2.571-2.571 2.571h-1.679v-5.313h1.777l0.268-2.071h-2.045v-1.321c0-0.598 0.161-1 1.027-1l1.089-0.009v-1.848c-0.187-0.027-0.839-0.081-1.589-0.081-1.581 0-2.67 0.964-2.67 2.732v1.527h-1.786v2.071h1.786v5.313h-4.75c-1.419 0-2.571-1.152-2.571-2.571v-8.571c0-1.419 1.152-2.571 2.571-2.571h8.571z"></path>
</svg>
<svg id="icon-facebook" width="16" height="16" viewBox="0 0 16 16" x="448" y="0">
<path fill="#fff" d="M11.857 0.679v2.357h-1.402c-1.098 0-1.303 0.527-1.303 1.286v1.687h2.616l-0.348 2.643h-2.268v6.777h-2.732v-6.777h-2.277v-2.643h2.277v-1.946c0-2.259 1.384-3.491 3.402-3.491 0.964 0 1.795 0.071 2.036 0.107z"></path>
</svg>
<svg id="icon-google" width="16" height="16" viewBox="0 0 16 16" x="480" y="0">
<path fill="#fff" d="M8.139 7.018h6.473c0.062 0.348 0.107 0.687 0.107 1.143 0 3.911-2.625 6.697-6.581 6.697-3.795 0-6.857-3.062-6.857-6.857s3.062-6.857 6.857-6.857c1.848 0 3.402 0.679 4.598 1.795l-1.866 1.795c-0.509-0.491-1.402-1.062-2.732-1.062-2.339 0-4.25 1.938-4.25 4.33s1.911 4.33 4.25 4.33c2.714 0 3.732-1.946 3.893-2.955h-3.893v-2.357z"></path>
</svg>
<svg id="icon-instagram" width="16" height="16" viewBox="0 0 16 16" x="0" y="32">
<path fill="#fff" d="M10.285 8c0-1.259-1.027-2.286-2.286-2.286s-2.286 1.027-2.286 2.286 1.027 2.286 2.286 2.286 2.286-1.027 2.286-2.286zM11.517 8c0 1.946-1.571 3.518-3.518 3.518s-3.518-1.571-3.518-3.518 1.571-3.518 3.518-3.518 3.518 1.571 3.518 3.518zM12.482 4.339c0 0.455-0.366 0.821-0.821 0.821s-0.821-0.366-0.821-0.821 0.366-0.821 0.821-0.821 0.821 0.366 0.821 0.821zM7.999 2.375c-1 0-3.143-0.081-4.045 0.277-0.313 0.125-0.545 0.277-0.786 0.518s-0.393 0.473-0.518 0.786c-0.357 0.902-0.277 3.045-0.277 4.045s-0.081 3.143 0.277 4.045c0.125 0.313 0.277 0.545 0.518 0.786s0.473 0.393 0.786 0.518c0.902 0.357 3.045 0.277 4.045 0.277s3.143 0.081 4.045-0.277c0.313-0.125 0.545-0.277 0.786-0.518s0.393-0.473 0.518-0.786c0.357-0.902 0.277-3.045 0.277-4.045s0.081-3.143-0.277-4.045c-0.125-0.313-0.277-0.545-0.518-0.786s-0.473-0.393-0.786-0.518c-0.902-0.357-3.045-0.277-4.045-0.277zM14.857 8c0 0.946 0.009 1.884-0.045 2.83-0.054 1.098-0.303 2.071-1.107 2.875s-1.777 1.054-2.875 1.107c-0.946 0.054-1.884 0.045-2.83 0.045s-1.884 0.009-2.83-0.045c-1.098-0.054-2.071-0.303-2.875-1.107s-1.054-1.777-1.107-2.875c-0.054-0.946-0.045-1.884-0.045-2.83s-0.009-1.884 0.045-2.83c0.054-1.098 0.303-2.071 1.107-2.875s1.777-1.054 2.875-1.107c0.946-0.054 1.884-0.045 2.83-0.045s1.884-0.009 2.83 0.045c1.098 0.054 2.071 0.303 2.875 1.107s1.054 1.777 1.107 2.875c0.054 0.946 0.045 1.884 0.045 2.83z"></path>
</svg>
<svg id="icon-line" width="16" height="16" viewBox="0 0 16 16" x="32" y="32">
<path fill="#fff" d="M12.588 6.668c0.217 0 0.392 0.177 0.392 0.393s-0.175 0.392-0.392 0.392h-1.093v0.701h1.093c0.217 0 0.392 0.176 0.392 0.392 0 0.215-0.175 0.392-0.392 0.392h-1.486c-0.215 0-0.39-0.177-0.39-0.392v-2.972c0-0.215 0.176-0.392 0.392-0.392h1.486c0.215 0 0.391 0.178 0.391 0.392 0 0.217-0.175 0.392-0.392 0.392h-1.093v0.701zM10.186 8.547c0 0.168-0.108 0.318-0.269 0.372-0.040 0.013-0.083 0.019-0.124 0.019-0.131 0-0.243-0.056-0.318-0.155l-1.522-2.066v1.831c0 0.215-0.174 0.392-0.393 0.392-0.215 0-0.39-0.177-0.39-0.392v-2.972c0-0.168 0.108-0.318 0.267-0.371 0.037-0.014 0.084-0.021 0.121-0.021 0.121 0 0.234 0.065 0.308 0.159l1.534 2.074v-1.841c0-0.215 0.176-0.392 0.392-0.392 0.215 0 0.392 0.178 0.392 0.392zM6.61 8.547c0 0.215-0.176 0.392-0.393 0.392-0.215 0-0.391-0.177-0.391-0.392v-2.972c0-0.215 0.176-0.392 0.392-0.392 0.215 0 0.391 0.178 0.391 0.392zM5.074 8.939h-1.486c-0.215 0-0.392-0.177-0.392-0.392v-2.972c0-0.215 0.177-0.392 0.392-0.392 0.217 0 0.392 0.178 0.392 0.392v2.579h1.093c0.217 0 0.392 0.176 0.392 0.392 0 0.215-0.176 0.392-0.392 0.392zM15.475 6.949c0-3.346-3.354-6.068-7.475-6.068s-7.475 2.723-7.475 6.068c0 2.997 2.659 5.507 6.251 5.985 0.243 0.051 0.575 0.161 0.659 0.368 0.075 0.187 0.049 0.477 0.024 0.673l-0.103 0.635c-0.028 0.187-0.149 0.738 0.654 0.402 0.804-0.336 4.308-2.54 5.877-4.345 1.074-1.177 1.587-2.382 1.587-3.717z"></path>
</svg>
<svg id="icon-linkedin" width="16" height="16" viewBox="0 0 16 16" x="64" y="32">
<path fill="#fff" d="M4.259 5.705v8.848h-2.946v-8.848h2.946zM4.446 2.973c0.009 0.848-0.634 1.527-1.661 1.527v0h-0.018c-0.991 0-1.625-0.679-1.625-1.527 0-0.866 0.661-1.527 1.661-1.527 1.009 0 1.634 0.661 1.643 1.527zM14.857 9.482v5.071h-2.938v-4.732c0-1.187-0.429-2-1.491-2-0.813 0-1.295 0.545-1.509 1.071-0.071 0.197-0.098 0.455-0.098 0.723v4.938h-2.938c0.036-8.018 0-8.848 0-8.848h2.938v1.286h-0.018c0.384-0.607 1.081-1.491 2.67-1.491 1.938 0 3.384 1.268 3.384 3.982z"></path>
</svg>
<svg id="icon-twitter" width="16" height="16" viewBox="0 0 16 16" x="96" y="32">
<path fill="#fff" d="M15.035 3.643c-0.393 0.571-0.884 1.081-1.446 1.491 0.009 0.125 0.009 0.25 0.009 0.375 0 3.813-2.902 8.205-8.205 8.205-1.634 0-3.152-0.473-4.429-1.295 0.232 0.027 0.455 0.036 0.697 0.036 1.348 0 2.589-0.455 3.581-1.232-1.268-0.027-2.33-0.857-2.697-2 0.179 0.027 0.357 0.045 0.545 0.045 0.259 0 0.518-0.036 0.759-0.098-1.321-0.268-2.313-1.429-2.313-2.83v-0.036c0.384 0.214 0.83 0.348 1.303 0.366-0.777-0.518-1.286-1.402-1.286-2.402 0-0.536 0.143-1.027 0.393-1.455 1.419 1.75 3.554 2.893 5.946 3.018-0.045-0.214-0.071-0.438-0.071-0.661 0-1.589 1.286-2.884 2.884-2.884 0.83 0 1.581 0.348 2.107 0.911 0.652-0.125 1.277-0.366 1.83-0.697-0.214 0.67-0.67 1.232-1.268 1.589 0.581-0.062 1.143-0.223 1.661-0.446z"></path>
</svg>
<svg id="icon-whatsapp" width="16" height="16" viewBox="0 0 16 16" x="128" y="32">
<path fill="#fff" d="M9.938 8.697c0.152 0 1.607 0.759 1.67 0.866 0.018 0.045 0.018 0.098 0.018 0.134 0 0.223-0.071 0.473-0.152 0.679-0.205 0.5-1.036 0.821-1.545 0.821-0.429 0-1.313-0.375-1.697-0.554-1.277-0.581-2.071-1.571-2.839-2.705-0.339-0.5-0.643-1.116-0.634-1.732v-0.071c0.018-0.589 0.232-1.009 0.661-1.411 0.134-0.125 0.277-0.197 0.464-0.197 0.107 0 0.214 0.027 0.33 0.027 0.241 0 0.286 0.071 0.375 0.303 0.062 0.152 0.518 1.366 0.518 1.455 0 0.339-0.616 0.723-0.616 0.929 0 0.045 0.018 0.089 0.045 0.134 0.197 0.419 0.571 0.902 0.911 1.223 0.411 0.393 0.848 0.652 1.348 0.902 0.062 0.036 0.125 0.062 0.197 0.062 0.268 0 0.714-0.866 0.946-0.866zM8.125 13.429c3.089 0 5.607-2.518 5.607-5.607s-2.518-5.607-5.607-5.607-5.607 2.518-5.607 5.607c0 1.179 0.375 2.33 1.071 3.286l-0.705 2.081 2.161-0.687c0.911 0.598 1.991 0.929 3.081 0.929zM8.125 1.089c3.714 0 6.732 3.018 6.732 6.732s-3.018 6.732-6.732 6.732c-1.134 0-2.259-0.286-3.259-0.839l-3.723 1.197 1.214-3.616c-0.634-1.045-0.964-2.25-0.964-3.473 0-3.714 3.018-6.732 6.732-6.732z"></path>
</svg>
<svg id="icon-youtube-play" width="16" height="16" viewBox="0 0 16 16" x="160" y="32">
<path fill="#fff" d="M6.422 9.98l4.129-2.133-4.129-2.158v4.291zM8 2.625c3.217 0 5.349 0.153 5.349 0.153 0.299 0.034 0.956 0.034 1.535 0.649 0 0 0.469 0.461 0.606 1.519 0.162 1.237 0.153 2.474 0.153 2.474v1.16s0.009 1.237-0.153 2.474c-0.137 1.049-0.606 1.519-0.606 1.519-0.58 0.606-1.237 0.606-1.535 0.64 0 0-2.133 0.162-5.349 0.162v0c-3.976-0.034-5.196-0.153-5.196-0.153-0.341-0.059-1.109-0.043-1.689-0.649 0 0-0.469-0.469-0.606-1.519-0.162-1.237-0.153-2.474-0.153-2.474v-1.16s-0.009-1.237 0.153-2.474c0.137-1.058 0.606-1.519 0.606-1.519 0.58-0.614 1.237-0.614 1.535-0.649 0 0 2.133-0.153 5.349-0.153v0z"></path>
</svg>
<svg id="icon-youtube" width="16" height="16" viewBox="0 0 16 16" x="192" y="32">
<path fill="#fff" d="M9.813 11.107v1.884c0 0.402-0.116 0.598-0.348 0.598-0.134 0-0.268-0.062-0.402-0.197v-2.687c0.134-0.134 0.268-0.197 0.402-0.197 0.232 0 0.348 0.205 0.348 0.598zM12.83 11.116v0.411h-0.803v-0.411c0-0.402 0.134-0.607 0.402-0.607s0.402 0.205 0.402 0.607zM4.205 9.17h0.955v-0.839h-2.786v0.839h0.938v5.081h0.893v-5.081zM6.777 14.25h0.795v-4.411h-0.795v3.375c-0.179 0.25-0.348 0.375-0.509 0.375-0.107 0-0.17-0.062-0.187-0.187-0.009-0.027-0.009-0.125-0.009-0.313v-3.25h-0.795v3.491c0 0.313 0.027 0.518 0.071 0.652 0.071 0.223 0.259 0.33 0.518 0.33 0.286 0 0.589-0.179 0.911-0.545v0.482zM10.607 12.929v-1.759c0-0.411-0.018-0.705-0.081-0.884-0.098-0.33-0.321-0.5-0.634-0.5-0.295 0-0.571 0.161-0.83 0.482v-1.938h-0.795v5.919h0.795v-0.429c0.268 0.33 0.545 0.491 0.83 0.491 0.313 0 0.536-0.17 0.634-0.491 0.062-0.187 0.081-0.482 0.081-0.893zM13.625 12.839v-0.116h-0.813c0 0.321-0.009 0.5-0.018 0.545-0.045 0.214-0.161 0.321-0.357 0.321-0.277 0-0.411-0.205-0.411-0.616v-0.777h1.598v-0.919c0-0.473-0.081-0.813-0.241-1.036-0.232-0.303-0.545-0.455-0.946-0.455-0.411 0-0.723 0.152-0.955 0.455-0.17 0.223-0.25 0.562-0.25 1.036v1.545c0 0.473 0.089 0.821 0.259 1.036 0.232 0.303 0.545 0.455 0.964 0.455s0.75-0.161 0.964-0.473c0.098-0.143 0.17-0.303 0.187-0.482 0.018-0.081 0.018-0.259 0.018-0.518zM8.197 4.687v-1.875c0-0.411-0.116-0.616-0.384-0.616-0.259 0-0.384 0.205-0.384 0.616v1.875c0 0.411 0.125 0.625 0.384 0.625 0.268 0 0.384-0.214 0.384-0.625zM14.616 11.393c0 1.027-0.009 2.125-0.232 3.125-0.17 0.705-0.741 1.223-1.429 1.295-1.643 0.187-3.303 0.187-4.955 0.187s-3.313 0-4.955-0.187c-0.687-0.071-1.268-0.589-1.429-1.295-0.232-1-0.232-2.098-0.232-3.125v0c0-1.036 0.009-2.125 0.232-3.125 0.17-0.705 0.741-1.223 1.438-1.303 1.634-0.179 3.295-0.179 4.946-0.179s3.313 0 4.955 0.179c0.687 0.081 1.268 0.598 1.429 1.303 0.232 1 0.232 2.089 0.232 3.125zM5.705 0h0.911l-1.081 3.562v2.419h-0.893v-2.419c-0.081-0.438-0.259-1.062-0.545-1.893-0.197-0.554-0.393-1.116-0.581-1.67h0.946l0.634 2.348zM9.009 2.973v1.562c0 0.473-0.081 0.83-0.25 1.054-0.223 0.303-0.536 0.455-0.946 0.455-0.402 0-0.714-0.152-0.938-0.455-0.17-0.232-0.25-0.581-0.25-1.054v-1.562c0-0.473 0.081-0.821 0.25-1.045 0.223-0.303 0.536-0.455 0.938-0.455 0.411 0 0.723 0.152 0.946 0.455 0.17 0.223 0.25 0.571 0.25 1.045zM12 1.527v4.455h-0.813v-0.491c-0.321 0.375-0.625 0.554-0.919 0.554-0.259 0-0.446-0.107-0.527-0.33-0.045-0.134-0.071-0.348-0.071-0.67v-3.518h0.813v3.277c0 0.187 0 0.295 0.009 0.313 0.018 0.125 0.081 0.197 0.187 0.197 0.161 0 0.33-0.125 0.509-0.384v-3.402h0.813z"></path>
</svg>
</svg>
